<svg width="586" height="288" viewBox="0 0 586 288" fill="none" xmlns="http://www.w3.org/2000/svg">
<path d="M248.648 56.7643H197.676V71.0292H248.648V56.7643Z" fill="#D3AA97"/>
<path d="M242.573 56.7644H239.112V71.0293H242.573V56.7644Z" fill="#C19280"/>
<path d="M235.756 56.7644H233.973V71.0293H235.756V56.7644Z" fill="#C19280"/>
<path d="M259.09 70.931H310.062V61.5662L259.09 61.5662V70.931Z" fill="#9AADCC"/>
<path d="M265.171 70.931H268.632V61.5662H265.171V70.931Z" fill="#B8C7DD"/>
<path d="M271.911 70.9312H273.694V61.5664H271.911V70.9312Z" fill="#B8C7DD"/>
<path d="M238.152 45.7636H193.263V56.7618H238.152V45.7636Z" fill="#EDCFBC"/>
<path d="M202.708 45.7637H199.247V56.7619H202.708V45.7637Z" fill="#DDB9A6"/>
<path d="M232.269 45.7636H229.646V56.7618H232.269V45.7636Z" fill="#DDB9A6"/>
<path d="M242.225 77.232V206.923C242.225 210.626 240.128 212.803 235.828 213.566C231.527 214.328 221.354 214.981 221.354 214.981" stroke="#4A1A1A" stroke-width="2" stroke-miterlimit="10"/>
<path d="M242.217 77.232V206.923C242.217 210.626 244.314 212.803 248.615 213.566C252.915 214.328 263.088 214.981 263.088 214.981" stroke="#4A1A1A" stroke-width="2" stroke-miterlimit="10"/>
<path d="M330.012 70.9175H154.651V79.4112H330.012V70.9175Z" fill="#E5DDD2"/>
<path d="M289.134 59.2682C289.134 59.2682 289.764 59.1593 290.078 58.7237C290.603 57.9614 289.659 57.0903 289.134 56.6547C288.4 56.1103 287.246 56.0014 286.932 55.0214C286.512 53.9324 287.246 52.6257 288.085 52.0813C288.82 51.5368 289.764 51.319 290.603 50.9923C291.546 50.6657 292.49 50.0123 293.015 49.1412C293.749 48.0522 293.539 46.5277 293.644 45.221C293.959 40.212 298.888 37.7075 303.083 37.5986C305.181 37.5986 308.327 38.3608 309.691 39.9942C310.11 40.5387 310.53 41.192 310.635 41.9543C310.845 43.0432 310.425 44.1321 309.691 45.0033C308.957 45.8744 308.013 46.31 307.174 47.0722C306.335 47.8345 306.964 48.7056 306.754 49.6856C306.545 50.7746 305.915 51.2101 304.971 51.6457C303.083 52.7346 300.986 52.9524 298.888 53.6058C298.259 53.8235 297.63 54.0413 297.105 54.4769C296.476 55.0214 296.056 55.8925 295.532 56.5458C294.588 57.8526 293.225 58.7237 291.756 59.0504" fill="#EFF4F9"/>
<path d="M292.878 70.1569H290.675C286.48 70.1569 283.124 66.6724 283.124 62.3167V57.3076H300.325V62.3167C300.429 66.6724 296.968 70.1569 292.878 70.1569Z" fill="#F2ECE7"/>
<path d="M281.261 68.195C281.261 68.195 281.366 71.0262 287.239 71.0262H296.364C302.237 71.0262 302.342 68.195 302.342 68.195H281.261Z" fill="white"/>
<path d="M171.13 68.1949C171.13 68.1949 171.235 71.0261 177.109 71.0261H186.233C192.107 71.0261 192.211 68.1949 192.211 68.1949H171.13Z" fill="#AFB9B8"/>
<path d="M300.037 67.3244H293.535V58.9396H300.037C302.24 58.9396 304.128 60.7908 304.128 63.1864C304.023 65.4732 302.24 67.3244 300.037 67.3244ZM295.003 65.7999H300.037C301.401 65.7999 302.554 64.602 302.554 63.1864C302.554 61.7708 301.401 60.573 300.037 60.573H295.003V65.7999Z" fill="#F2ECE7"/>
<path opacity="0.3" d="M260.804 251.024C260.804 260.28 203.329 267.793 132.429 267.793C61.5291 267.793 4.0542 260.28 4.0542 251.024C4.0542 241.768 61.5291 234.254 132.429 234.254C203.329 234.254 260.804 241.768 260.804 251.024Z" fill="#606060"/>
<path opacity="0.3" d="M441.847 260.828C519.697 260.828 582.807 253.32 582.807 244.058C582.807 234.797 519.697 227.289 441.847 227.289C363.997 227.289 300.887 234.797 300.887 244.058C300.887 253.32 363.997 260.828 441.847 260.828Z" fill="#606060"/>
<path d="M91.8495 183.184C91.8495 183.184 12.3494 195.489 1.96616 221.841C-8.41709 248.193 23.2571 266.269 74.9636 255.271C74.9636 255.271 132.124 239.046 139.256 224.999C146.388 211.061 130.131 184.709 130.131 184.709C130.131 184.709 124.992 181.115 123.314 181.115C121.636 181.115 91.8495 183.184 91.8495 183.184Z" fill="#160539"/>
<path d="M152.784 232.734C125.62 223.914 109.258 213.569 82.1989 211.5C80.8355 225.547 82.094 239.921 81.6745 254.186C109.363 253.859 136.842 252.988 158.447 251.464C159.391 245.801 160.86 240.139 162.013 234.476C162.013 234.041 152.679 233.17 152.784 232.734Z" fill="#FC4F5A"/>
<path d="M86.3805 232.296C85.8561 240.463 85.5415 248.848 87.744 256.797C83.9683 258.104 79.9828 258.757 76.1022 258.866C75.5778 258.866 74.9485 258.866 74.4241 258.539C73.7948 258.104 73.5851 257.124 73.3753 256.361C72.6411 252.332 71.907 248.194 71.2777 244.165C69.7045 233.929 68.7605 223.04 72.4314 213.458C73.5851 210.409 75.4729 207.251 78.4096 206.053C80.0877 205.291 81.9755 205.291 83.8634 205.508C85.961 205.617 90.4709 205.944 91.9393 207.904C93.5125 209.973 91.4148 212.369 90.4709 214.22C87.5342 219.665 86.8001 225.98 86.3805 232.296Z" fill="#27135B"/>
<path d="M28.7878 211.932L28.4731 210.952C36.2344 208.665 43.7858 206.596 51.6519 205.943C60.5668 205.181 68.4329 206.378 74.9355 209.536L74.516 210.516C68.1182 207.467 60.357 206.27 51.6519 206.923C43.9955 207.685 36.549 209.754 28.7878 211.932Z" fill="#AADAE1"/>
<path d="M74.7847 260.499C72.5822 258.757 71.9529 255.708 71.5334 252.877C70.1699 243.73 69.5406 234.474 69.6455 225.218C69.6455 221.842 69.8553 218.249 70.9041 214.764C72.1627 210.953 74.4701 208.013 77.3019 206.706L77.7214 207.686C75.0994 208.993 72.8968 211.715 71.848 215.2C70.7992 218.467 70.6943 221.951 70.5894 225.327C70.4846 234.474 71.1139 243.73 72.4773 252.768C72.8968 255.272 73.4212 258.104 75.3091 259.628L74.7847 260.499Z" fill="#AADAE1"/>
<path d="M137.774 227.394C137.774 227.394 150.569 227.829 158.016 223.147C158.016 223.147 176.055 232.947 192.522 235.234C208.988 237.63 245.277 232.076 245.277 232.076L249.472 219.88L266.987 214.327C266.987 214.327 259.646 189.281 152.457 172.403C45.2683 155.525 123.405 194.508 123.405 194.508L135.256 213.238L137.774 227.394Z" fill="#160539"/>
<path d="M194.221 99.012C175.552 78.2135 179.118 96.9431 178.069 108.703C176.496 126.997 187.823 143.222 195.374 159.883C201.457 173.168 208.694 186.779 220.86 194.184C222.958 195.491 225.475 196.58 227.887 196.035C230.929 195.273 232.397 197.56 232.712 194.293C233.027 191.135 234.705 188.631 231.558 179.375C229.88 174.039 197.262 102.279 194.221 99.012Z" fill="#FC4F5A"/>
<path d="M170.933 24.9653C170.933 24.9653 169.36 21.3719 164.43 17.4517C159.501 13.5316 157.403 7.86917 162.752 2.64233C168.101 -2.47562 177.75 -0.406661 178.694 11.0271C179.638 22.4608 179.743 26.1631 179.743 26.1631L170.933 24.9653Z" fill="#160539"/>
<path d="M179.32 19.0834C174.286 19.0834 170.51 21.1523 169.147 22.0235C170.51 23.7658 171.035 24.9636 171.035 24.9636L179.845 26.1614C179.74 26.1614 179.635 24.3102 179.32 19.0834Z" fill="white"/>
<path d="M206.457 60.5736C203.206 56.7624 206.352 53.3867 206.562 45.2198C206.562 45.2198 207.191 28.4503 193.032 23.5501C180.551 19.1944 170.902 21.3723 160.204 31.7171C149.507 42.0619 141.745 40.8641 127.586 42.933C116.889 44.5664 115.001 47.6154 110.281 54.4756C110.281 54.4756 104.827 62.0981 96.2269 67.7606C88.7803 72.6607 90.5633 93.4593 122.237 86.8168C153.912 80.1743 171.427 88.2324 176.356 97.7061C181.286 107.18 210.757 120.465 213.589 90.5191C215.372 72.5518 206.457 60.5736 206.457 60.5736Z" fill="#160539"/>
<path d="M179.311 87.6868C179.311 87.6868 203.538 96.3982 213.083 136.58L189.589 148.884L172.913 116.326L180.884 93.1314L179.311 87.6868Z" fill="#FDBC0B"/>
<path d="M155.161 248.409L165.125 272.365C165.859 273.89 167.432 274.652 169.005 274.216L169.11 230.877L154.951 233.381L155.161 248.409Z" fill="white"/>
<path d="M173.387 229.789L173.282 274.435L169.086 274.653L169.191 230.007L173.387 229.789Z" fill="black"/>
<path d="M161.684 236.432C163.572 236.323 165.04 237.956 165.04 240.134C165.04 242.203 163.467 244.054 161.579 244.163C159.691 244.272 158.223 242.639 158.223 240.461C158.223 238.283 159.692 236.432 161.684 236.432Z" stroke="black" stroke-width="0.9675" stroke-miterlimit="10" stroke-linecap="round" stroke-linejoin="round"/>
<path d="M157.075 256.581L159.697 252.987" stroke="black" stroke-width="0.9675" stroke-miterlimit="10" stroke-linecap="round" stroke-linejoin="round"/>
<path d="M158.45 259.631L161.177 256.038" stroke="black" stroke-width="0.9675" stroke-miterlimit="10" stroke-linecap="round" stroke-linejoin="round"/>
<path d="M159.911 262.898L162.848 259.195" stroke="black" stroke-width="0.9675" stroke-miterlimit="10" stroke-linecap="round" stroke-linejoin="round"/>
<path d="M155.511 10.2651C158.762 18.5409 167.467 23.55 175.229 26.2723C175.648 26.3812 175.858 25.8367 175.438 25.619C167.782 23.0055 159.182 18.1054 156.035 9.93842C155.93 9.61174 155.406 9.82953 155.511 10.2651Z" fill="#160539"/>
<path d="M159.705 185.364C155.195 177.414 154.461 179.483 154.147 174.148C153.937 169.574 155.615 165.11 157.503 160.972C159.181 157.378 161.698 154.329 164.74 151.934C168.41 149.102 172.92 147.36 176.277 144.311C179.843 141.044 182.15 136.253 182.465 131.353C182.674 127.651 181.94 123.839 182.674 120.246C183.199 117.632 184.562 115.237 185.506 112.732C187.394 107.397 187.394 101.407 185.296 96.1807C179.843 82.0246 165.054 82.2424 153.308 77.2334C134.848 69.3931 111.25 85.5092 107.37 104.783C105.796 112.732 106.95 121.008 106.845 129.175C106.845 129.72 106.845 130.373 106.845 130.917C106.531 140.282 104.118 149.429 99.923 157.705C95.518 166.307 92.2667 173.385 91.8472 183.295C91.8472 183.295 109.048 185.799 114.921 195.382C122.472 207.796 154.147 208.667 163.062 204.202C171.976 199.737 159.705 185.364 159.705 185.364Z" fill="#FDBC0B"/>
<path d="M113.262 118.178C121.337 113.931 129.308 107.616 133.609 99.122C135.496 95.3108 136.545 91.064 136.021 86.7083C135.601 83.2237 134.133 80.0658 132.245 77.2346C120.289 81.5903 109.905 92.5885 107.493 104.676C106.444 110.011 106.549 115.456 106.759 121.009C108.961 120.247 111.164 119.267 113.262 118.178Z" fill="#FC4F5A"/>
<path d="M160.966 66.9967C158.764 69.9368 156.456 72.8769 153.415 74.9459C152.261 75.7082 149.534 76.4704 149.115 77.6682C148.695 79.1927 150.478 82.2417 151.317 83.4395C152.89 85.9441 155.093 88.013 157.4 89.7553C159.813 91.6065 162.435 93.2399 165.266 94.111C168.728 95.2 171.14 94.7644 174.391 93.131C175.545 92.5865 176.698 91.9332 177.538 90.8442C178.167 90.082 178.901 88.8842 178.586 87.9041C178.481 87.4686 177.538 87.5775 177.328 87.033C176.698 85.2907 179.53 81.6973 180.264 80.2817C181.313 78.2127 182.047 75.9259 181.733 73.7481C181.418 72.1147 180.474 70.6991 179.53 69.3924C178.272 67.6501 176.803 66.1256 175.335 64.6011C174.076 63.2944 172.818 61.8788 171.35 60.7898C170.301 59.9187 169.986 54.8007 168.518 55.0185C167.469 55.1274 166.525 57.632 166.21 58.3942C165.057 60.681 164.008 63.1855 162.54 65.1456C161.91 65.7989 161.491 66.3434 160.966 66.9967Z" fill="#FC4F5A"/>
<path d="M168.939 75.927C170.197 80.5005 173.973 83.6584 178.168 84.4206C178.797 83.005 179.636 81.6983 180.371 80.2827C181.419 78.2137 182.154 75.927 181.839 73.7491C181.524 72.1158 180.58 70.7002 179.636 69.3934C178.378 67.6512 176.909 66.1267 175.441 64.6022C174.287 63.4044 173.134 62.2065 171.98 61.2265C168.729 65.2555 167.575 71.1357 168.939 75.927Z" fill="#190F35"/>
<path d="M200.182 138.975C200.392 139.084 200.707 138.866 200.916 138.866C201.126 138.866 201.021 138.539 200.811 138.648C200.602 138.757 200.287 138.757 200.182 138.866C200.077 138.866 200.077 138.975 200.182 138.975Z" fill="#3D599C"/>
<path d="M160.838 167.832C162.726 155.419 165.139 140.718 167.026 130.918C167.131 130.918 167.131 130.918 167.236 130.918C170.278 130.918 206.462 118.395 206.986 118.722C207.406 118.94 197.757 150.736 192.303 167.615L160.838 167.832Z" fill="white"/>
<path d="M161.904 167.831C162.743 155.417 163.897 140.825 165.05 131.025C165.155 131.025 165.155 131.025 165.26 131.025C168.302 130.807 203.437 116.325 203.961 116.651C204.381 116.869 197.039 150.844 192.949 167.613L161.904 167.831Z" fill="white"/>
<path d="M123.524 162.277C123.524 162.277 126.042 115.78 125.937 113.166C125.937 112.513 164.113 131.351 167.05 131.787C167.155 131.787 167.155 131.787 167.26 131.787C167.26 141.369 166.736 155.525 166.211 167.721L123.524 162.277Z" fill="white"/>
<path d="M126.024 159.665C125.29 144.42 128.227 111.208 128.751 111.099C129.381 110.882 165.984 131.571 168.921 132.224C169.026 132.224 169.026 132.224 169.131 132.224C168.292 141.807 166.718 155.745 165.145 167.832L126.024 159.665Z" fill="white"/>
<path d="M121.531 164.456C123.104 150.627 123.524 116.435 123.628 116.435C133.697 120.681 167.469 131.026 169.776 132.551C169.881 132.66 207.638 120.355 209.526 120.355C209.946 120.355 200.926 150.518 195.367 167.614L158.029 172.079L121.531 164.456Z" fill="#725AE8"/>
<path d="M158.041 172.08C158.041 172.08 167.794 141.917 169.577 132.552C169.682 132.552 169.682 132.552 169.787 132.552C172.829 132.552 209.013 120.03 209.537 120.356C209.852 120.574 200.937 150.52 195.378 167.616L158.041 172.08Z" fill="#35107D"/>
<path d="M172.092 251.133C172.407 251.133 172.721 251.025 173.036 251.025C184.048 249.936 195.585 248.193 206.703 248.193C217.086 247.322 227.574 246.451 237.957 245.035C246.767 243.838 255.682 242.313 263.444 237.849C265.646 236.542 267.849 234.908 268.897 232.513C269.527 230.879 269.527 228.919 269.527 227.177C269.527 224.455 269.527 221.732 268.897 219.119C267.534 213.13 263.024 208.23 257.78 205.399C252.536 202.567 246.558 201.478 240.579 201.043C239.216 200.934 237.748 200.934 236.384 200.934C232.608 201.043 228.518 201.696 225.372 203.983C223.798 205.072 222.855 206.596 221.176 207.25C219.289 208.012 216.667 208.121 214.674 208.556C205.864 210.625 197.263 213.892 189.083 217.703C184.888 219.663 141.047 243.184 141.572 244.382C141.676 244.6 142.83 251.678 144.298 255.271C153.528 255.162 162.758 252.222 172.092 251.133Z" fill="#FC4F5A"/>
<path d="M270.352 227.18C271.086 218.578 264.793 209.213 257.661 205.293C252.417 202.461 246.439 201.372 240.46 200.937C239.097 200.828 237.629 200.828 236.265 200.828C229.343 201.046 223.155 204.53 216.652 206.708C209.206 209.104 201.654 211.173 193.998 212.806C205.955 219.993 212.772 234.476 213.611 248.85C213.611 249.612 213.821 250.592 214.45 250.919C214.66 251.028 214.974 251.028 215.184 251.028C228.189 250.81 241.195 248.305 253.361 243.732C258.5 241.772 263.639 239.376 267.1 235.02C269.198 232.625 270.142 230.011 270.352 227.18Z" fill="#160539"/>
<path d="M199.138 217.052C207.109 226.526 211.094 239.375 209.94 251.789C213.087 252.551 216.338 252.769 219.59 252.442C220.324 252.333 221.163 252.224 221.582 251.571C221.897 251.026 222.002 250.373 221.897 249.72C221.687 236.653 216.967 224.021 211.409 212.261C209.94 209.103 207.843 205.509 204.487 204.856C202.074 204.42 199.662 205.509 197.46 206.598C195.572 207.578 191.481 209.212 192.845 211.716C193.789 213.676 197.669 215.31 199.138 217.052Z" fill="#27135B"/>
<path d="M173.638 120.246C164.199 118.722 154.655 116.435 145.53 113.495L145.845 112.515C154.97 115.455 164.304 117.742 173.743 119.157L173.638 120.246Z" fill="#152146"/>
<path d="M210.141 210.953L209.617 210.082C218.427 204.42 228.915 201.153 239.298 201.153V202.242C229.125 202.242 218.741 205.291 210.141 210.953Z" fill="white"/>
<path d="M220.335 252.984C220.231 252.984 220.021 252.984 219.916 252.876C219.601 252.658 219.496 252.331 219.496 252.004C219.496 251.787 219.706 251.569 219.916 251.46L220.231 252.44C220.335 252.44 220.44 252.222 220.44 252.113C220.44 252.004 220.44 251.896 220.44 251.896C220.335 251.896 220.231 251.896 220.231 251.896C220.231 251.896 220.231 251.787 220.231 251.46C219.287 238.393 216.14 225.761 210.896 213.892C208.379 208.23 205.652 205.398 202.296 205.072L202.401 203.983C207.225 204.527 210.057 209.645 211.735 213.456C217.084 225.435 220.231 238.175 221.175 251.351C221.175 251.569 221.279 252.331 220.65 252.767C220.545 252.984 220.44 252.984 220.335 252.984Z" fill="white"/>
<path d="M169.043 95.0915C168.938 95.0915 168.938 95.0915 168.834 95.0915C165.268 94.9826 161.387 93.567 157.192 90.6269C152.472 87.3601 149.745 83.8756 148.696 79.9555C148.277 78.431 148.382 77.2331 148.906 76.2531L149.745 76.7976C149.326 77.4509 149.326 78.431 149.64 79.6288C150.584 83.2222 153.206 86.489 157.716 89.6469C161.807 92.4781 165.477 93.8937 168.834 94.0026C173.134 94.1115 177.014 91.7158 178.273 88.1224L179.217 88.558C177.853 92.4781 173.658 95.0915 169.043 95.0915Z" fill="#152146"/>
<path d="M17.1001 246.017C16.3659 246.017 15.7366 245.908 15.0024 245.799L15.2122 244.819C17.205 245.364 19.4075 244.928 21.1904 243.839C22.9734 242.75 24.3369 240.79 24.7564 238.721C25.2808 236.652 24.9661 234.148 23.9173 231.752C22.8685 229.357 21.1904 227.288 19.827 225.763L20.5612 225.001C21.9246 226.525 23.7076 228.703 24.7564 231.208C25.9101 233.821 26.2247 236.544 25.7003 238.83C25.1759 241.226 23.7076 243.295 21.61 244.602C20.4563 245.582 18.7782 246.017 17.1001 246.017Z" fill="#AADAE1"/>
<path d="M264.286 235.346C260.511 235.346 256.735 232.515 255.162 228.377C253.379 223.804 254.323 218.903 255.372 215.528L256.315 215.854C255.267 219.012 254.428 223.695 256.106 227.941C257.679 231.97 261.559 234.584 265.125 234.148L265.23 235.237C264.916 235.346 264.601 235.346 264.286 235.346Z" fill="white"/>
<path d="M169.359 124.275C169.149 124.275 168.94 124.166 168.835 123.948C168.835 123.839 168.73 123.839 168.73 123.73C165.793 122.968 162.752 122.424 159.815 121.879C155.62 121.117 151.215 120.355 147.02 118.939L147.334 117.959C151.425 119.375 155.725 120.137 159.92 120.899C162.961 121.444 166.108 121.988 169.254 122.75C169.884 122.968 169.988 123.404 169.988 123.621C169.988 123.948 169.779 124.166 169.569 124.275C169.464 124.275 169.464 124.275 169.359 124.275ZM169.045 123.404L169.569 123.948C169.674 123.839 169.674 123.621 169.569 123.404C169.464 123.295 169.359 123.186 169.149 123.186C169.149 123.295 169.045 123.295 169.045 123.404Z" fill="#152146"/>
<path d="M164.517 59.2671C164.517 59.2671 165.356 72.2253 178.361 75.3832C178.361 75.3832 186.962 76.9077 190.842 70.9186C194.723 64.9295 200.387 45.111 200.387 45.111C200.387 45.111 201.645 41.1909 199.652 39.8842C197.66 38.5775 195.038 39.8842 195.038 39.8842C195.038 39.8842 194.513 35.0929 190.108 35.6374C185.703 36.2907 182.976 41.4087 179.2 46.0911C175.425 50.7734 170.286 50.3379 170.286 50.3379C170.286 50.3379 170.495 45.0021 166.51 43.3687C162.524 41.7353 158.119 44.7843 159.063 50.4468C160.112 56.2181 164.517 59.2671 164.517 59.2671Z" fill="#FC4F5A"/>
<path d="M174.18 25.8359C168.831 27.1426 165.685 31.3895 162.538 35.7452C160.755 38.2497 158.972 40.7542 156.665 42.7143C154.043 44.8921 150.792 45.6544 147.435 46.09C141.352 46.9611 135.164 46.7433 129.291 48.7034C122.578 50.9901 118.908 56.9792 116.705 63.6217C116.6 64.0572 117.125 64.275 117.334 63.8395C118.698 59.5926 120.586 55.7814 123.732 52.6235C126.144 50.3368 129.501 49.0301 132.647 48.2678C138.416 46.9611 144.394 47.2878 150.162 46.09C155.197 45.1099 158.448 42.0609 161.594 37.923C165.16 33.1317 168.307 27.6871 174.285 26.1626C174.6 26.3804 174.495 25.8359 174.18 25.8359Z" fill="white"/>
<path d="M186.746 55.7684L184.789 62.3213L185.29 62.4825L187.246 55.9296L186.746 55.7684Z" fill="#160539"/>
<path d="M179.996 50.187L179.806 51.6987L184.694 52.3614L184.884 50.8498L179.996 50.187Z" fill="#160539"/>
<path d="M193.151 54.0738L192.144 55.1838L195.351 58.3189L196.358 57.2089L193.151 54.0738Z" fill="#160539"/>
<path d="M182.559 54.6935C182.35 55.238 181.93 55.5647 181.511 55.3469C181.091 55.238 180.881 54.6935 180.986 54.1491C181.196 53.6046 181.615 53.2779 182.035 53.4957C182.455 53.6046 182.664 54.1491 182.559 54.6935Z" fill="#160539"/>
<path d="M193.152 58.2878C192.942 58.8322 192.523 59.1589 192.103 58.9411C191.684 58.7233 191.474 58.2878 191.579 57.7433C191.789 57.1988 192.208 56.8722 192.628 57.0899C193.152 57.1988 193.362 57.7433 193.152 58.2878Z" fill="#160539"/>
<path d="M180.909 67.2141C180.279 66.9963 179.545 66.4518 178.916 65.7985L179.231 65.4718C182.272 68.6297 185.314 66.234 185.419 66.1252L185.733 66.5607C185.733 66.5607 183.531 68.303 180.909 67.2141Z" fill="#160539"/>
<path d="M180.806 46.4186C184.267 41.4096 191.294 31.5004 195.07 39.8851C195.07 39.8851 194.545 35.0938 190.14 35.6383C185.735 36.2916 183.008 41.4096 179.233 46.092C175.457 50.7743 170.318 50.3388 170.318 50.3388C170.318 50.3388 170.318 50.3388 170.423 50.3388C171.472 50.4477 177.66 50.9921 180.806 46.4186Z" fill="#C92736"/>
<path d="M199.348 47.5054C198.614 50.1188 198.089 52.0789 197.775 53.6034C199.348 48.921 200.397 45.2187 200.397 45.2187C200.397 45.2187 201.655 41.2985 199.663 39.9918C197.67 38.6851 195.048 39.9918 195.048 39.9918C195.048 39.9918 202.285 37.9229 199.348 47.5054Z" fill="#C92736"/>
<g opacity="0.4">
<path opacity="0.4" d="M181.852 61.3346C181.538 62.4235 179.755 62.968 178.077 62.3146C176.294 61.7702 175.245 60.3545 175.559 59.1567C175.874 58.0678 177.657 57.5233 179.335 58.1767C181.118 58.83 182.272 60.2457 181.852 61.3346Z" fill="#C92736"/>
</g>
<g opacity="0.4">
<path opacity="0.4" d="M192.744 65.0374C192.43 66.1263 190.647 66.6708 188.969 66.0174C187.186 65.473 186.137 64.0574 186.451 62.8595C186.766 61.7706 188.549 61.2262 190.227 61.8795C192.01 62.424 193.059 63.8396 192.744 65.0374Z" fill="#C92736"/>
</g>
<path d="M178.178 59.2662C174.927 57.9594 173.249 54.2571 174.298 50.8814C174.822 49.1392 175.976 47.7235 177.549 46.9613C179.122 46.0902 180.905 45.9813 182.478 46.5257C185.939 47.7235 187.827 51.5348 186.674 55.0193C185.52 58.6128 181.849 60.5729 178.493 59.375C178.388 59.375 178.283 59.2662 178.178 59.2662ZM182.688 47.0702C182.583 47.0702 182.478 46.9613 182.373 46.9613C180.8 46.4168 179.227 46.6346 177.759 47.3969C176.29 48.1591 175.242 49.4658 174.822 50.9903C173.773 54.2571 175.556 57.7417 178.703 58.8306C181.849 59.9195 185.31 58.0683 186.254 54.8016C187.198 51.6437 185.625 48.268 182.688 47.0702Z" fill="white"/>
<path d="M191.606 65.6913C188.355 64.3846 186.677 60.6823 187.726 57.3066C188.88 53.7131 192.55 51.7531 195.907 52.9509C199.368 54.1487 201.255 57.9599 200.102 61.4445C199.577 63.1868 198.424 64.6024 196.851 65.3646C195.277 66.2358 193.494 66.3447 191.921 65.8002C191.921 65.8002 191.816 65.8002 191.606 65.6913ZM196.221 53.6042C196.116 53.6042 196.011 53.4953 195.907 53.4953C192.76 52.4064 189.299 54.2576 188.355 57.5244C187.306 60.7911 189.089 64.2757 192.236 65.3646C193.809 65.9091 195.382 65.6913 196.851 64.9291C198.319 64.1668 199.368 62.8601 199.787 61.3356C200.731 58.1777 199.158 54.8021 196.221 53.6042Z" fill="white"/>
<path d="M186.222 55.3963L186.062 55.9146L188.258 56.6486L188.419 56.1303L186.222 55.3963Z" fill="white"/>
<path d="M175.656 48.9213L164.854 43.8033L165.063 43.2589L175.866 48.3768L175.656 48.9213Z" fill="white"/>
<path d="M164.514 59.2669C164.514 59.2669 164.514 59.2669 164.514 59.3758C164.723 59.3758 165.038 59.3758 165.248 59.3758C166.402 56.0002 168.185 52.9512 170.282 50.3378C170.282 50.3378 170.492 45.002 166.506 43.3686C162.521 41.7352 158.116 44.7842 159.06 50.4466C160.109 56.218 164.514 59.2669 164.514 59.2669Z" fill="#FC4F5A"/>
<path d="M167.357 52.6235C167.357 52.6235 168.406 48.2678 166.728 46.3077C165.05 44.3477 162.638 45.8722 162.638 45.8722L162.533 45.6544C162.533 45.6544 165.155 44.021 166.938 46.1988C168.721 48.2678 167.672 52.6235 167.672 52.7324L167.357 52.6235Z" fill="white"/>
<path d="M162.399 50.6622C162.714 49.6822 163.238 48.9199 164.078 48.5932C165.651 47.7221 167.643 48.4843 167.748 48.4843L167.643 48.7021C167.643 48.7021 165.651 48.0488 164.182 48.811C163.448 49.1377 162.924 49.8999 162.609 50.7711L162.399 50.6622Z" fill="white"/>
<path d="M83.3712 99.2316C83.3712 99.2316 63.7584 114.368 64.5975 129.177C66.3804 161.518 133.19 174.041 133.19 174.041L139.482 157.053C139.482 157.053 96.4813 134.404 101.83 123.95L103.403 113.17L94.4885 103.696L91.1323 102.172L83.3712 99.2316Z" fill="#FC4F5A"/>
<path d="M136.111 76.1446C136.111 76.1446 115.973 77.5602 83.2505 99.2298C83.2505 99.2298 98.1436 112.406 101.71 124.275C101.814 124.275 148.592 99.3387 136.111 76.1446Z" fill="#FDBC0B"/>
<path d="M139.045 156.943C139.045 156.943 143.764 157.488 145.233 156.072C146.806 154.548 147.96 152.805 147.96 152.805C147.96 152.805 150.057 154.657 148.169 157.706C148.169 157.706 158.028 159.557 160.755 161.19C163.482 162.824 160.231 163.695 160.231 163.695C160.231 163.695 163.692 166.199 161.385 167.397C161.385 167.397 162.643 170.01 159.182 170.664C158.867 170.773 158.658 170.882 158.658 170.991C158.238 171.862 157.714 172.842 156.77 173.059C154.672 173.713 152.155 174.584 151.421 174.693C150.372 174.802 148.379 175.237 142.925 175.02C140.618 174.911 133.276 173.822 133.276 173.822L139.045 156.943Z" fill="#FC4F5A"/>
<path d="M160.123 163.588C157.501 163.043 154.46 163.152 151.838 163.152C151.523 163.152 151.523 163.588 151.838 163.696C154.564 163.805 157.396 164.241 160.123 163.914C160.333 163.805 160.333 163.588 160.123 163.588Z" fill="#152146"/>
<path d="M158.42 170.771C157.371 170.553 156.217 170.553 155.169 170.553C154.12 170.445 153.071 170.445 152.022 170.445C151.707 170.445 151.707 170.88 152.022 170.989C153.071 170.989 154.225 170.989 155.273 171.098C156.322 171.207 157.371 171.316 158.42 171.098C158.63 170.989 158.63 170.771 158.42 170.771Z" fill="#152146"/>
<path d="M151.625 167.178C151.625 167.069 153.827 167.069 156.449 167.178C159.071 167.287 161.274 167.287 161.274 167.505C161.274 167.614 159.176 167.832 156.449 167.723C153.827 167.614 151.625 167.287 151.625 167.178Z" fill="#152146"/>
<path d="M152.575 255.276L140.619 284.677C139.78 286.637 137.787 287.508 135.899 286.964L135.27 233.933L152.575 236.764V255.276Z" fill="white"/>
<path d="M130.128 232.734L130.653 287.398L135.792 287.616L135.268 233.061L130.128 232.734Z" fill="black"/>
<path d="M144.596 240.682C142.289 240.573 140.401 242.642 140.506 245.255C140.611 247.869 142.499 250.046 144.806 250.046C147.114 250.155 149.001 248.086 148.897 245.473C148.792 242.968 146.904 240.791 144.596 240.682Z" stroke="black" stroke-width="0.9675" stroke-miterlimit="10" stroke-linecap="round" stroke-linejoin="round"/>
<path d="M150.37 265.293L147.014 261.046" stroke="black" stroke-width="0.9675" stroke-miterlimit="10" stroke-linecap="round" stroke-linejoin="round"/>
<path d="M148.685 269.099L145.329 264.744" stroke="black" stroke-width="0.9675" stroke-miterlimit="10" stroke-linecap="round" stroke-linejoin="round"/>
<path d="M146.901 273.132L143.335 268.559" stroke="black" stroke-width="0.9675" stroke-miterlimit="10" stroke-linecap="round" stroke-linejoin="round"/>
<path d="M83.3374 99.2313C83.3374 99.2313 97.3915 110.883 101.797 124.277L83.3374 99.2313Z" fill="#FC4F5A"/>
<path d="M101.294 124.493C96.994 111.425 83.1497 99.7739 82.9399 99.665L83.6741 98.685C83.779 98.7939 97.9379 110.663 102.343 124.057L101.294 124.493Z" fill="white"/>
<path d="M213.121 136.579C213.121 136.579 207.353 139.41 203.472 141.588L213.121 136.579Z" fill="#FC4F5A"/>
<path d="M203.774 142.134L203.25 141.045C207.025 138.867 212.899 136.036 212.899 136.036L213.423 137.125C213.318 137.125 207.55 139.956 203.774 142.134Z" fill="white"/>
<path d="M133.513 109.357L132.569 108.595C141.904 96.7258 139.911 82.2431 139.806 82.0253L140.96 81.8076C141.065 82.0253 143.162 97.0525 133.513 109.357Z" fill="white"/>
<path d="M178.806 120.355C177.024 110.337 181.219 100.318 181.324 99.8829L182.372 100.318C182.372 100.427 178.177 110.445 179.855 120.137L178.806 120.355Z" fill="white"/>
<path d="M77.0659 142.462L76.0171 142.026C79.8977 132.879 70.773 126.999 70.3535 126.781L70.9828 125.801C71.0877 125.801 81.4709 132.335 77.0659 142.462Z" fill="white"/>
<path d="M179.308 144.963C179.308 144.963 196.403 205.834 218.848 206.051C241.293 206.16 232.902 184.709 232.902 184.709L201.018 149.427C201.018 149.427 195.984 138.211 194.096 137.34C192.208 136.469 191.684 139.3 193.467 142.785C195.25 146.378 190.32 141.369 188.328 137.123C186.335 132.876 182.979 129.173 181.72 130.371C180.357 131.569 183.503 141.043 183.503 141.043C183.503 141.043 181.72 140.607 181.405 142.132C181.405 142.132 180.042 142.132 180.042 143.112C179.832 143.329 178.783 143.329 179.308 144.963Z" fill="#FC4F5A"/>
<path d="M222.846 184.711C213.092 169.792 203.652 154.33 194.842 138.758L195.681 138.214C204.596 153.676 213.931 169.139 223.685 184.057L222.846 184.711Z" fill="white"/>
<path d="M221.597 199.738C219.604 199.738 217.611 198.866 216.143 197.342L216.877 196.58C218.555 198.322 221.072 198.975 223.065 198.431C225.268 197.886 226.946 195.708 226.841 193.531H227.89C227.995 196.144 226.002 198.866 223.38 199.52C222.751 199.629 222.226 199.738 221.597 199.738Z" fill="white"/>
<path d="M187.609 149.322C186.875 146.599 185.407 143.877 184.253 141.373C184.148 141.046 183.729 141.373 183.834 141.59C184.987 144.095 185.826 147.035 187.295 149.431C187.504 149.54 187.714 149.431 187.609 149.322Z" fill="#152146"/>
<path d="M182.581 149.649C182.371 148.56 181.742 147.471 181.323 146.491C180.903 145.511 180.484 144.531 179.959 143.442C179.854 143.115 179.435 143.442 179.54 143.659C179.959 144.639 180.484 145.728 180.903 146.708C181.323 147.688 181.637 148.777 182.267 149.649C182.371 149.866 182.581 149.866 182.581 149.649Z" fill="#152146"/>
<path d="M181.736 142.242C181.84 142.242 182.784 144.202 183.833 146.706C184.882 149.211 185.826 151.171 185.721 151.28C185.616 151.389 184.462 149.429 183.414 146.924C182.365 144.42 181.631 142.351 181.736 142.242Z" fill="#152146"/>
<path d="M320.156 221.078C320.156 221.078 390.322 162.929 459.753 165.216C529.185 167.503 541.665 182.421 541.665 182.421L496.986 212.584C496.986 212.584 468.563 190.697 329.071 245.905L320.156 221.078Z" fill="#0E0623"/>
<path d="M318.373 223.801C313.234 227.068 307.885 230.334 302.431 233.166C305.997 242.857 303.585 251.895 311.031 250.262C315.961 249.173 321.415 247.866 327.183 246.342C323.722 238.937 320.576 231.532 318.373 223.801Z" fill="#FC4F5A"/>
<path d="M321.545 215.61L313.251 218.694L324.356 250.883L332.65 247.798L321.545 215.61Z" fill="#27135B"/>
<path d="M322.04 215.521L321.053 215.888L331.949 247.462L332.936 247.095L322.04 215.521Z" fill="white"/>
<path d="M313.729 218.654L312.742 219.021L323.847 251.21L324.834 250.843L313.729 218.654Z" fill="white"/>
<path d="M523.839 75.9245C520.483 69.0643 510.729 74.2911 505.904 78.9735C501.184 83.547 498.143 89.645 495.206 95.5252C494.157 97.703 432.802 184.926 423.153 197.013C423.153 197.231 423.153 197.449 423.153 197.557C423.153 198.211 423.258 198.537 423.782 198.864L423.887 198.973C423.992 198.973 424.097 199.082 424.202 199.191C424.726 198.973 425.146 198.755 425.25 198.646C426.194 198.102 427.243 196.469 428.397 196.577C427.243 197.775 426.089 198.755 425.355 200.28C425.146 200.606 425.041 200.933 425.146 201.26C425.25 201.586 425.46 201.913 425.775 202.131C426.929 203.22 428.292 204.091 429.655 204.853C430.809 205.398 431.963 205.942 433.221 205.724C434.27 205.507 435.214 204.853 436.053 204.2C440.353 200.824 444.024 196.795 448.219 193.311C452.52 189.717 456.82 186.015 461.015 182.204C468.776 175.126 476.223 167.721 483.355 160.098C486.711 156.396 498.562 143.873 501.394 140.28C505.17 135.598 508.631 130.589 511.673 125.362C516.602 116.868 521.846 108.374 524.573 99.1186C526.775 91.0606 527.09 82.5669 523.839 75.9245Z" fill="#FC4F5A"/>
<path d="M304.229 231.098C303.285 231.424 302.131 231.969 301.607 231.969C299.929 232.295 298.251 232.295 296.678 232.295C290.699 232.078 285.665 230.335 281.68 225.544C279.582 222.931 277.484 220.317 275.492 217.595C275.072 217.05 274.653 216.397 274.023 216.07C273.394 215.744 272.66 215.526 272.031 215.962C271.506 216.288 271.296 216.833 271.191 217.486C270.562 220.426 280.106 239.047 280.106 239.047C285.35 247.976 288.602 252.767 288.602 252.767L290.49 256.578L288.392 257.559C288.392 257.559 288.392 257.667 288.497 257.667L290.385 261.805C298.251 258.539 305.802 254.618 313.249 250.589L304.229 231.098Z" fill="#160539"/>
<path d="M363.291 208.555C355.005 217.158 341.895 228.483 342 228.592C342.105 228.7 342 228.918 342.209 228.918C344.936 228.918 345.985 239.59 349.132 238.936C358.571 236.867 368.535 233.165 378.184 228.483C373.359 221.84 368.22 215.307 363.291 208.555Z" fill="#FC4F5A"/>
<path d="M344.908 222.383C344.069 223.036 343.23 223.907 342.81 224.234C341.342 225.105 339.874 225.868 338.3 226.412C332.637 228.481 327.288 228.808 321.939 225.759C319.002 224.125 316.171 222.492 313.339 220.75C312.709 220.423 312.08 219.987 311.451 219.878C310.717 219.77 309.983 219.987 309.563 220.532C309.248 220.967 309.248 221.621 309.353 222.274C309.773 225.214 325.19 239.043 325.19 239.043C333.266 245.359 337.881 248.626 337.881 248.626L341.027 251.457L339.349 253.199L339.454 253.308L342.601 256.466C348.789 250.477 354.452 243.944 360.011 237.41L344.908 222.383Z" fill="#160539"/>
<path d="M374.711 226.74L374.292 225.76C376.39 224.78 378.277 223.146 379.746 221.295L380.48 221.949C379.012 223.909 377.019 225.651 374.711 226.74Z" fill="#152146"/>
<path d="M515.463 162.277C515.463 162.277 466.588 121.334 435.438 133.53C404.394 145.726 362.126 209.754 362.126 209.754L376.705 230.226C376.705 230.226 455.051 184.056 491.34 214.001C491.34 214.001 501.094 232.295 524.482 233.384C547.976 234.364 560.876 209.972 561.401 197.341C561.925 184.709 539.69 169.355 539.69 169.355L515.463 162.277Z" fill="#160539"/>
<path d="M365.727 200.96L359.117 206.325L378.625 232.232L385.235 226.867L365.727 200.96Z" fill="#27135B"/>
<path d="M359.551 206.134L358.723 206.802L378.531 233.294L379.36 232.626L359.551 206.134Z" fill="#FFE7E1"/>
<path d="M366.252 200.918L365.428 201.591L384.629 226.919L385.453 226.246L366.252 200.918Z" fill="#FFE7E1"/>
<path d="M523.858 75.9243C520.502 69.064 510.748 74.2909 505.923 78.9732C501.204 83.5467 498.162 89.6447 495.225 95.5249C495.016 95.9605 492.813 99.1184 489.352 104.127C494.281 107.176 499.106 110.334 503.406 114.254C506.658 117.195 509.804 120.57 512.006 124.49C516.831 116.215 521.865 107.939 524.487 98.9006C526.795 91.0603 527.109 82.5667 523.858 75.9243Z" fill="#FF7373"/>
<path d="M521.117 111.733C521.117 111.733 521.117 111.641 521.029 111.641C521.117 111.733 521.117 111.733 521.117 111.733Z" fill="white"/>
<path d="M536.23 71.1351C537.384 71.1351 538.537 71.244 539.586 71.3529C538.537 71.244 537.384 71.1351 536.23 71.1351Z" fill="white"/>
<path d="M528.785 71.1354C529.939 71.1354 531.197 71.0266 532.351 71.0266C531.197 71.0266 529.939 71.0265 528.785 71.1354Z" fill="white"/>
<path d="M562.555 79.0822C550.494 70.8064 533.084 68.6285 519.135 71.5686C517.247 72.0042 515.254 72.5487 513.786 73.7465C511.583 75.4888 510.429 78.32 509.8 81.1512C504.346 102.494 514.73 123.946 512.107 145.398C511.583 150.08 511.373 154.872 511.164 159.663C516.303 162.93 521.337 167.394 525.637 170.661C531.301 174.908 536.755 179.263 541.894 184.273C546.509 188.737 551.123 192.984 555.004 198.32C555.319 198.646 555.528 199.082 555.738 199.409C557.416 200.498 558.989 201.913 560.143 203.547C562.031 200.062 563.709 195.053 564.863 192.548C567.485 187.213 569.897 181.768 572.204 176.214C576.819 164.781 580.805 153.02 582.902 140.715C586.888 117.521 582.902 93.0205 562.555 79.0822Z" fill="#496ABF"/>
<path d="M562.555 79.0822C550.494 70.8064 533.084 68.6285 519.135 71.5686C517.247 72.0042 515.254 72.5487 513.786 73.7465C511.583 75.4888 510.429 78.32 509.8 81.1512C504.346 102.494 514.73 123.946 512.107 145.398C511.583 150.08 511.373 154.872 511.164 159.663C516.303 162.93 521.337 167.394 525.637 170.661C531.301 174.908 536.755 179.263 541.894 184.273C546.509 188.737 551.123 192.984 555.004 198.32C555.319 198.646 555.528 199.082 555.738 199.409C557.416 200.498 558.989 201.913 560.143 203.547C562.031 200.062 563.709 195.053 564.863 192.548C567.485 187.213 569.897 181.768 572.204 176.214C576.819 164.781 580.805 153.02 582.902 140.715C586.888 117.521 582.902 93.0205 562.555 79.0822Z" fill="#496ABF"/>
<path d="M562.565 79.0822C550.504 70.8064 533.093 68.6285 519.144 71.5686C518.934 71.5686 518.725 71.6775 518.515 71.6775C519.669 72.4398 520.822 73.3109 521.976 73.9643C524.283 73.9643 526.591 73.6376 528.793 73.4198C532.254 73.0931 536.03 73.4198 539.386 74.7265C541.484 75.4888 543.896 76.4688 545.889 77.7755C548.511 79.5178 550.818 82.8935 550.923 86.2691C551.133 89.8626 549.14 93.1294 547.777 96.2872C546.308 99.6629 545.469 103.256 545.155 106.85C545.05 108.701 544.945 110.77 543.582 111.859C542.533 112.621 541.064 112.621 539.911 112.186C538.652 111.75 537.603 110.988 536.45 110.334C532.254 107.939 521.137 106.088 519.983 113.492C519.564 116.106 519.669 119.264 519.983 121.877C520.822 128.193 523.654 134.073 526.276 139.844C527.43 142.349 529.213 144.636 530.681 147.031C532.15 149.536 533.933 152.149 534.772 154.98C535.506 157.267 536.45 160.098 536.345 162.494C536.24 164.563 535.191 166.85 533.303 167.503C531.94 168.047 530.471 167.721 529.108 167.394C522.71 165.761 515.473 161.296 511.173 156.069C510.964 157.049 510.964 158.247 511.068 159.445C516.312 162.712 521.347 167.176 525.647 170.443C531.31 174.69 536.764 179.046 541.903 184.055C546.518 188.519 551.133 192.766 555.014 198.102C555.328 198.428 555.538 198.864 555.748 199.191C557.426 200.28 558.999 201.695 560.153 203.329C562.041 199.844 563.719 194.835 564.872 192.33C567.494 186.995 569.907 181.55 572.214 175.997C576.829 164.563 580.814 152.802 582.912 140.498C586.897 117.521 582.912 93.0205 562.565 79.0822Z" fill="#3159AF"/>
<path d="M522.356 115.509C522.356 115.418 522.269 115.326 522.269 115.235C522.356 115.326 522.356 115.418 522.356 115.509Z" fill="white"/>
<path d="M521.11 111.642C520.691 110.444 520.271 109.246 519.747 108.157C520.166 109.246 520.691 110.444 521.11 111.642Z" fill="white"/>
<path d="M519.769 108.047C519.56 107.503 519.245 106.849 519.035 106.305C519.245 106.849 519.455 107.503 519.769 108.047Z" fill="white"/>
<path d="M522.405 115.235C521.985 114.037 521.671 112.948 521.251 111.75C521.566 112.948 521.985 114.146 522.405 115.235Z" fill="white"/>
<path d="M522.929 117.304C522.719 116.76 522.614 116.215 522.404 115.562C522.929 117.413 523.453 119.155 523.978 121.006C524.187 121.769 524.397 122.422 524.502 123.184C524.187 121.224 523.558 119.264 522.929 117.304Z" fill="white"/>
<path d="M539.687 71.2438H539.599C539.687 71.2438 539.687 71.2438 539.687 71.2438C539.687 71.3351 539.687 71.3351 539.687 71.2438Z" fill="white"/>
<path d="M545.568 63.0756C546.092 65.1445 546.511 67.2135 547.455 69.0647C548.504 71.1336 550.182 72.767 549.238 75.1626C548.819 76.3605 547.875 77.3405 547.036 78.3205C544.624 81.0428 542.002 83.6562 538.75 85.1807C536.233 86.3786 533.401 86.7052 530.779 86.2697C528.052 85.8341 525.535 84.4185 523.647 82.3495C522.599 81.1517 521.655 79.7361 521.34 78.2116C521.025 77.0138 521.025 75.816 521.445 74.6182C521.864 73.3115 522.599 73.2026 523.857 72.8759C524.382 72.767 524.801 72.6581 525.326 72.767C525.326 72.6581 525.325 72.5492 525.43 72.3314C526.06 70.3714 525.535 68.3024 525.43 66.2335C525.325 64.1645 525.535 62.0956 526.584 60.3533C527.423 59.1555 528.682 58.3932 529.94 57.7399C531.618 56.8687 533.296 56.2154 535.079 55.562C536.548 55.0175 538.121 54.3642 539.694 54.0375C540.848 53.8197 542.946 49.7907 544.099 50.4441C544.938 51.0974 544.309 57.631 545.568 63.0756Z" fill="#FC4F5A"/>
<path d="M525.431 71.896C526.795 73.0938 528.473 73.965 530.466 73.4205C533.192 72.6583 535.185 70.0449 536.758 67.7581C538.961 64.4913 540.744 60.8979 542.212 57.3044C543.051 55.4533 543.785 53.4932 544.52 51.5331C544.415 50.9887 544.31 50.5531 544.1 50.4442C542.946 49.7908 540.954 53.8199 539.695 54.0377C538.122 54.3643 536.549 55.0177 535.08 55.5621C533.297 56.2155 531.619 56.9777 529.941 57.74C528.683 58.3933 527.424 59.1556 526.585 60.3534C525.431 61.9868 525.326 64.1647 525.431 66.2336C525.326 68.1937 525.746 70.1537 525.431 71.896Z" fill="#160539"/>
<path d="M533.276 86.4875C529.5 86.4875 525.725 85.0719 522.998 82.5673C521.215 80.8251 520.166 78.865 520.166 76.9049C520.166 74.7271 521.634 72.2225 523.942 72.0048L524.047 73.0937C522.264 73.2026 521.11 75.1626 521.11 76.9049C521.11 78.5383 522.054 80.2806 523.627 81.8051C527.298 85.3986 533.276 86.4875 538.31 84.5274C543.135 82.6762 547.016 78.4294 548.903 73.0937L549.847 73.4204C547.855 79.0828 543.659 83.5474 538.625 85.5074C536.947 86.1608 535.164 86.4875 533.276 86.4875Z" fill="#152146"/>
<path d="M510.204 121.55C506.429 116.323 501.604 111.75 496.15 108.483L496.675 107.612C502.233 110.987 507.163 115.67 510.939 121.006L510.204 121.55Z" fill="#152146"/>
<path d="M509.479 114.363C509.374 114.254 509.059 114.036 508.85 113.927C508.535 113.71 508.43 113.601 508.325 113.492C505.703 110.552 502.766 107.938 499.515 105.543L500.04 104.672C503.291 106.958 506.228 109.681 508.954 112.73C509.059 112.73 509.164 112.947 509.269 112.947C510.003 113.492 510.108 113.492 510.213 113.71L509.479 114.363C509.374 114.363 509.479 114.363 509.479 114.363Z" fill="#152146"/>
<path d="M511.055 157.811L510.111 157.593C512.419 142.457 512.104 127.212 509.062 112.185L510.006 111.967C513.048 127.212 513.363 142.566 511.055 157.811Z" fill="white"/>
<path d="M546.292 39.9882C546.292 39.9882 547.55 39.0081 549.019 39.9882C550.487 40.9682 551.641 43.6905 549.963 47.0662C548.389 50.4419 546.606 51.9664 543.565 51.6397C540.523 51.313 544.404 44.5617 544.404 44.5617L546.292 39.9882Z" fill="#FC4F5A"/>
<path d="M513.248 50.3352C513.248 50.3352 513.562 66.0158 528.455 66.0158C544.712 66.0158 546.075 51.0975 546.075 51.0975L544.188 32.6946C544.188 32.6946 542.929 24.0921 535.482 21.2609C528.036 18.4297 519.54 24.0921 519.54 24.0921C519.54 24.0921 516.394 27.6856 515.87 33.4569C515.345 39.2282 513.248 50.3352 513.248 50.3352Z" fill="#FC4F5A"/>
<path d="M516.392 25.0721C516.392 25.0721 521.111 25.0721 523.209 29.5367C525.307 34.0013 531.809 38.7926 539.885 36.7236C539.885 36.7236 528.663 39.0104 523.838 29.4278C518.909 19.5186 514.399 23.6565 514.399 23.6565L516.392 25.0721Z" fill="#160539"/>
<path d="M517.022 20.171C514.295 18.5376 511.463 20.4977 511.043 25.0712C510.309 33.8915 515.029 41.2962 515.029 41.2962C515.029 41.2962 515.239 31.8225 517.546 28.1202C522.371 26.269 528.454 34.5448 534.642 36.2871C540.83 38.0294 544.291 33.1292 544.291 33.1292L545.235 42.6029C545.235 42.6029 549.954 39.2272 549.849 27.9024C549.745 16.2509 527.405 9.93513 521.322 10.1529C515.344 10.4796 517.022 20.171 517.022 20.171Z" fill="#160539"/>
<path d="M545.153 41.515C545.258 43.1484 545.363 44.8907 545.573 46.5241C545.573 46.7419 545.888 46.7419 545.888 46.5241C545.783 44.8907 545.678 43.1484 545.468 41.515C545.363 41.2972 545.153 41.2972 545.153 41.515Z" fill="#160539"/>
<path d="M545.554 43.9089C546.288 42.4933 547.757 40.9688 549.225 42.1666C549.33 42.2755 549.54 42.0577 549.435 41.9488C547.757 40.5332 546.184 42.1666 545.345 43.6911C545.24 43.9089 545.449 44.1267 545.554 43.9089Z" fill="#160539"/>
<path d="M514.517 40.0979C514.517 40.0979 513.573 39.009 512.105 40.0979C510.636 41.078 509.483 43.8003 511.161 47.1759C512.734 50.5516 514.517 52.0761 517.559 51.7494C520.6 51.4227 516.719 44.6714 516.719 44.6714L514.517 40.0979Z" fill="#FC4F5A"/>
<path d="M514.616 42.6025C514.092 41.5136 513.043 40.6424 511.889 41.4047C511.784 41.5136 511.889 41.7314 511.994 41.6225C513.043 40.9691 513.882 41.8403 514.301 42.7114C514.511 42.9292 514.721 42.8203 514.616 42.6025Z" fill="#160539"/>
<path d="M517.017 49.353C514.08 47.8285 513.346 44.0173 515.444 41.4038C515.549 41.2949 515.339 41.0772 515.234 41.186C513.031 43.9084 513.871 47.9374 516.912 49.5708C517.017 49.5708 517.122 49.353 517.017 49.353Z" fill="#160539"/>
<path d="M540.01 49.897C542.422 47.3924 542.002 43.3634 539.066 41.4033C538.961 41.2944 538.751 41.5122 538.961 41.6211C541.688 43.4723 542.107 47.2835 539.905 49.6792C539.695 49.7881 539.905 50.0058 540.01 49.897Z" fill="#160539"/>
<path d="M521.837 38.2136L516.743 38.9195L516.91 40.2147L522.004 39.5088L521.837 38.2136Z" fill="#160539"/>
<path d="M531.448 38.415L531.402 39.7208L536.538 39.9164L536.584 38.6106L531.448 38.415Z" fill="#160539"/>
<path d="M524.061 43.6904C524.48 46.086 524.9 48.3728 525.214 50.7684C525.214 50.9862 525.529 50.8773 525.424 50.6595C525.004 48.2639 524.585 45.9771 524.27 43.5815C524.375 43.4726 524.061 43.4726 524.061 43.6904Z" fill="#160539"/>
<path d="M518.716 49.7898C514.94 49.7898 511.794 46.5231 511.794 42.6029C511.794 38.6828 514.94 35.416 518.716 35.416C522.492 35.416 525.638 38.6828 525.638 42.6029C525.638 46.632 522.492 49.7898 518.716 49.7898ZM518.716 35.7427C515.045 35.7427 512.109 38.7917 512.109 42.6029C512.109 46.4142 515.045 49.4632 518.716 49.4632C522.387 49.4632 525.324 46.4142 525.324 42.6029C525.324 38.9006 522.282 35.7427 518.716 35.7427Z" fill="white"/>
<path d="M533.497 49.7931C529.722 49.7931 526.575 46.5263 526.575 42.6062C526.575 38.686 529.722 35.4193 533.497 35.4193C537.273 35.4193 540.42 38.686 540.42 42.6062C540.315 46.6352 537.273 49.7931 533.497 49.7931ZM533.497 35.7459C529.827 35.7459 526.89 38.7949 526.89 42.6062C526.89 46.4174 529.827 49.4664 533.497 49.4664C537.168 49.4664 540.105 46.4174 540.105 42.6062C540 38.9038 537.063 35.7459 533.497 35.7459Z" fill="white"/>
<path d="M526.684 42.4977H525.426V42.8244H526.684V42.4977Z" fill="white"/>
<path d="M540.002 40.9705L539.897 40.6438L547.659 39.1193L547.764 39.446L540.002 40.9705Z" fill="white"/>
<path d="M515.25 40.7531L512.313 40.5353V40.2086L515.25 40.4264V40.7531Z" fill="white"/>
<path d="M522.607 38.3537C523.132 38.6803 523.132 39.4426 523.027 39.9871C523.027 40.2048 523.237 40.2048 523.342 39.9871C523.446 39.3337 523.342 38.4626 522.712 38.1359C522.607 38.027 522.398 38.2448 522.607 38.3537Z" fill="#160539"/>
<path d="M530.565 37.921C530.041 38.3565 529.726 39.0099 529.831 39.6633C529.831 39.881 530.146 39.881 530.146 39.6633C530.146 39.1188 530.355 38.4654 530.775 38.1388C530.88 38.0299 530.67 37.8121 530.565 37.921Z" fill="#160539"/>
<path d="M527.75 55.0179C527.75 56.3246 527.12 57.3046 526.281 57.3046C525.442 57.3046 524.813 56.3246 524.813 55.0179C524.813 53.7112 525.442 52.7311 526.281 52.7311C527.12 52.7311 527.75 53.7112 527.75 55.0179Z" fill="#160539"/>
<path d="M519.988 43.6934C519.988 44.129 519.673 44.4556 519.254 44.4556C518.834 44.4556 518.52 44.129 518.52 43.6934C518.52 43.2578 518.834 42.9312 519.254 42.9312C519.673 42.9312 519.988 43.2578 519.988 43.6934Z" fill="#160539"/>
<path d="M534.661 43.6929C534.661 44.1285 534.346 44.4552 533.927 44.4552C533.507 44.4552 533.192 44.1285 533.192 43.6929C533.192 43.2573 533.507 42.9307 533.927 42.9307C534.346 42.9307 534.661 43.2573 534.661 43.6929Z" fill="#160539"/>
<path d="M517.019 20.4958C517.019 20.4958 513.663 17.338 510.726 19.7336C510.726 19.7336 513.977 16.249 518.697 20.4958C523.312 24.8515 517.019 20.4958 517.019 20.4958Z" fill="#160539"/>
<path d="M497.626 74.6149C497.521 74.6149 497.521 74.6149 497.416 74.6149C495.004 74.6149 466.476 62.5278 466.057 62.8545C465.637 63.1811 479.796 120.132 480.74 121.221C481.579 122.201 500.038 131.13 505.387 133.744C505.177 131.457 500.667 93.6711 497.626 74.6149Z" fill="white"/>
<path d="M499.093 74.728C498.988 74.728 498.988 74.728 498.883 74.728C496.471 74.5102 468.782 60.4631 468.362 60.7898C467.943 61.1165 478.326 118.829 479.27 120.027C480.004 121.116 497.939 131.243 503.078 134.292C503.078 132.005 500.981 94.002 499.093 74.728Z" fill="white"/>
<path d="M526.456 58.2847C526.037 58.0669 499.816 75.0542 497.509 75.4898C497.509 75.4898 497.404 75.4898 497.299 75.4898C497.404 92.3682 498.768 123.294 499.292 132.55C499.292 132.55 499.397 132.55 499.397 132.659C499.607 132.767 499.816 132.985 499.816 133.094C500.236 133.312 500.655 133.639 501.075 133.965C507.368 129.392 521.002 119.483 521.632 118.502C522.471 117.196 526.981 58.6114 526.456 58.2847Z" fill="white"/>
<path d="M523.84 56.6495C523.42 56.4317 498.354 75.2701 496.046 75.8146C496.046 75.8146 495.941 75.8146 495.836 75.8146C497.095 93.7819 500.871 127.647 501.605 134.181C501.815 134.29 502.129 134.508 502.444 134.617C507.793 130.152 522.371 118.065 522.896 116.867C523.63 115.669 524.364 56.8673 523.84 56.6495Z" fill="white"/>
<path d="M495.527 76.1392C497.625 76.1392 523.845 64.0522 531.816 59.8054C531.921 59.8054 536.955 116.43 537.06 115.994C537.165 115.994 503.393 135.268 503.393 135.268C503.393 135.268 479.795 123.943 478.746 122.745C477.802 121.656 463.643 64.7055 464.063 64.3789C464.482 64.0522 493.115 76.1392 495.527 76.1392Z" fill="#725AE8"/>
<path d="M516.288 115.669C515.344 113.818 514.4 111.967 513.561 110.007C512.827 108.373 512.197 106.74 511.148 105.324C510.205 104.018 509.051 102.711 507.478 102.166C505.59 101.513 503.702 102.167 502.129 103.147C502.024 103.147 501.919 103.255 501.919 103.255C499.402 105.107 500.031 108.7 500.87 111.422C501.499 113.709 502.653 116.214 502.653 118.609C502.653 122.094 500.765 125.143 501.29 128.627C501.604 130.914 502.338 133.201 503.282 135.379C508.422 132.439 515.134 128.627 520.378 125.578C519.329 122.203 517.861 118.936 516.288 115.669Z" fill="#6255DA"/>
<path d="M495.632 76.141C495.527 76.141 495.527 76.141 495.422 76.141C493.01 76.141 464.482 64.0539 464.063 64.3806C463.643 64.7073 477.802 121.658 478.746 122.747C479.585 123.727 498.044 132.656 503.393 135.27C503.184 132.983 498.674 95.3061 495.632 76.141Z" fill="#35107D"/>
<path d="M583.941 113.056C583.941 113.056 586.039 139.953 566.636 163.038C547.233 186.232 505.595 137.666 505.595 137.666L517.552 121.332C517.552 121.332 547.338 138.428 547.653 136.904C548.282 132.984 551.428 115.996 551.428 115.996L583.941 113.056Z" fill="#FC4F5A"/>
<path d="M518.691 122.093C518.691 122.093 513.761 118.717 513.551 116.104C513.342 113.381 513.551 110.768 513.551 110.768C513.551 110.768 510.09 110.768 509.566 115.124C509.566 115.124 498.868 108.59 494.987 107.937C491.107 107.283 493.519 110.768 493.519 110.768C493.519 110.768 488.275 110.224 489.534 113.381C489.534 113.381 486.387 114.797 489.009 118.282C489.324 118.608 489.324 118.826 489.324 119.044C489.009 120.242 488.799 121.548 489.429 122.637C490.792 125.033 492.575 127.973 493.204 128.626C494.148 129.606 495.722 131.675 500.966 136.14C503.168 137.991 510.929 143.109 510.929 143.109L518.691 122.093Z" fill="#FC4F5A"/>
<path d="M493.528 110.552C496.465 112.294 499.087 114.908 501.709 117.194C502.024 117.412 501.604 117.848 501.29 117.63C498.667 115.452 495.626 113.492 493.319 110.879C493.214 110.661 493.423 110.443 493.528 110.552Z" fill="#160539"/>
<path d="M489.54 118.719C490.694 119.373 491.743 120.353 492.791 121.224C493.84 122.095 494.889 122.966 495.833 123.837C496.147 124.055 495.728 124.491 495.413 124.273C494.365 123.402 493.316 122.531 492.267 121.659C491.218 120.897 490.169 120.135 489.33 119.046C489.225 118.828 489.33 118.61 489.54 118.719Z" fill="#160539"/>
<path d="M498.78 121.115C498.885 121.006 496.787 119.263 494.27 117.086C491.753 114.908 489.655 113.166 489.551 113.383C489.446 113.492 491.334 115.452 493.956 117.63C496.473 119.699 498.675 121.224 498.78 121.115Z" fill="#160539"/>
<path d="M550.064 121.006C555.622 117.848 562.02 116.65 568.208 115.344C572.089 114.581 575.864 113.928 579.745 113.492C581.108 113.275 582.577 113.166 583.94 113.057C583.625 110.443 583.101 107.83 582.367 105.217C580.06 96.5052 576.703 85.2893 569.257 80.3891C561.705 75.4889 553.105 88.3383 550.903 95.3074C548.805 102.168 549.224 109.463 549.749 116.65C549.854 118.066 549.959 119.482 550.064 121.006Z" fill="#496ABF"/>
<path d="M549.966 121.658L549.546 120.678C551.539 119.589 553.742 119.045 555.944 118.5C565.698 115.996 575.767 113.491 585.835 111.967L585.94 112.947C575.872 114.471 565.803 117.085 556.154 119.48C554.056 120.025 551.959 120.569 549.966 121.658Z" fill="white"/>
<path d="M549.956 115.998L549.641 115.018C560.339 111.424 571.456 108.375 582.469 105.979L582.679 106.959C571.666 109.355 560.654 112.295 549.956 115.998Z" fill="white"/>
<path d="M560.755 204.418C546.176 188.52 530.025 173.819 512.719 160.97L513.348 160.099C530.654 172.948 546.806 187.649 561.489 203.656L560.755 204.418Z" fill="#FFE7E1"/>
<path d="M384.153 226.524L383.629 225.544C384.258 225.217 443.411 191.896 481.064 207.25L480.644 208.23C443.516 193.203 384.783 226.197 384.153 226.524Z" fill="white"/>
<path d="M442.358 143.11C437.533 143.11 433.967 139.625 433.862 139.517L434.596 138.754C434.596 138.754 438.372 142.457 443.092 142.021C446.133 141.803 448.965 139.952 451.482 136.576L452.321 137.23C449.594 140.823 446.553 142.892 443.197 143.11C442.882 143.11 442.567 143.11 442.358 143.11Z" fill="white"/>
<path d="M539.466 212.041C530.447 199.954 541.249 185.035 541.354 184.926L542.193 185.58C542.088 185.689 531.81 199.845 540.305 211.387L539.466 212.041Z" fill="white"/>
<path d="M450.965 182.106L450.006 182.546L458.955 203.56L459.914 203.12L450.965 182.106Z" fill="white"/>
<path d="M462.283 202.349L461.339 201.805L467.946 186.56L468.89 186.995L462.283 202.349Z" fill="white"/>
</svg>
