<svg width="356" height="448" viewBox="0 0 356 448" fill="none" xmlns="http://www.w3.org/2000/svg">
<path d="M245.409 182.723C250.59 175.592 250.59 164.975 246.992 156.576C243.539 148.177 237.063 141.839 230.444 136.451C223.536 130.904 215.766 126.15 207.132 125.516C203.534 125.199 199.793 125.833 196.771 128.21C192.741 131.38 191.302 137.243 191.159 142.631C191.015 147.385 191.446 152.139 193.173 156.576C197.49 168.461 209.002 182.565 220.37 186.209C228.573 188.745 237.783 186.209 245.409 182.723Z" fill="#DDEDED"/>
<path d="M300.375 151.981C292.46 145.008 289.582 133.123 290.877 122.189C292.748 105.392 301.094 87.3264 314.046 77.026C318.794 73.2228 324.982 71.0043 330.738 72.589C342.538 75.9168 345.848 91.605 343.977 103.015C341.531 117.911 332.033 131.063 322.248 141.522C316.348 147.702 309.009 152.932 300.375 151.981Z" fill="#FCB72D"/>
<path d="M283.11 93.5064C279.8 92.5556 275.483 89.5447 274.044 86.3754C266.274 68.4686 265.554 46.2832 274.908 27.901C279.944 18.076 289.298 7.1418 299.803 2.54625C304.839 0.327715 311.171 0.0107806 315.488 3.33859C320.956 7.45873 322.395 16.016 323.258 22.3546C324.266 29.3272 324.122 36.4582 323.115 43.4308C320.956 57.3759 315.344 71.1625 306.134 82.4137C304.695 84.1568 303.256 85.7415 301.673 87.3262C298.22 90.654 291.888 93.8233 283.11 93.5064Z" fill="#725AE8"/>
<path d="M309.157 180.505C307.862 178.762 306.854 175.435 307.286 173.374C309.588 160.856 316.64 148.495 327.144 141.998C332.757 138.512 340.959 136.135 347.434 137.402C350.6 138.036 353.622 140.255 354.63 143.583C355.925 147.861 353.622 153.091 352.039 156.735C350.169 160.856 347.722 164.659 344.988 168.145C339.376 174.959 332.037 180.347 323.979 183.041C322.683 183.516 321.532 183.833 320.237 183.992C317.359 184.626 313.186 183.833 309.157 180.505Z" fill="#EFF5F9"/>
<path d="M251.883 72.1136C248.861 67.3596 245.119 63.2394 240.802 60.0701C231.017 52.7806 214.18 48.9774 205.834 61.0209C201.805 66.7257 202.956 74.8076 204.971 81.6217C210.295 98.7361 220.944 113.632 234.902 123.299C243.105 129.003 255.624 132.014 261.524 121.08C265.265 114.266 262.675 103.49 261.236 96.2006C259.509 87.4849 256.487 79.0862 251.883 72.1136Z" fill="#FCB72D"/>
<path d="M267.137 223.45C266.129 197.778 265.122 171.155 260.229 145.484C255.193 119.495 243.105 85.7418 224.398 69.2612L225.261 67.9935C244.112 84.791 256.344 118.703 261.524 145.008C266.561 170.68 267.568 197.461 268.576 223.133L267.137 223.45Z" fill="#A5C6C4"/>
<path d="M284.262 244.843H282.823C282.967 181.297 304.408 126.151 322.684 98.2605L323.835 99.2113C305.56 126.785 284.406 181.614 284.262 244.843Z" fill="#A5C6C4"/>
<path d="M276.923 239.613L276.779 225.826C276.06 149.128 275.484 82.7306 302.969 18.2346L304.265 18.8684C276.779 83.0476 277.499 149.287 278.218 225.826L278.362 239.613H276.923Z" fill="#A5C6C4"/>
<path d="M259.367 243.258L257.928 243.099C260.374 203.482 239.652 163.39 207.562 145.325L208.138 143.899C240.948 162.281 261.957 203.165 259.367 243.258Z" fill="#A5C6C4"/>
<path d="M285.988 253.241L284.549 253.083C286.42 218.22 300.378 171.63 333.044 154.358L333.619 155.784C301.529 172.74 287.859 218.854 285.988 253.241Z" fill="#A5C6C4"/>
<path d="M232.6 212.673V241.514C232.744 316.311 254.617 327.562 254.617 327.562L302.824 327.403C302.824 327.403 324.697 316.152 324.553 241.356V212.515L232.6 212.673Z" fill="white"/>
<path d="M254.473 328.672L254.329 328.513C253.466 328.038 231.881 316.153 231.737 241.515V211.565L325.56 211.406V241.356C325.704 315.994 304.263 327.879 303.256 328.355L302.824 328.513L254.473 328.672ZM233.464 213.783V241.673C233.608 311.24 252.746 325.344 254.761 326.612L302.392 326.453C304.407 325.185 323.546 311.082 323.402 241.356V213.466L233.464 213.783Z" fill="#EFF5F9"/>
<path d="M105.104 262.433C120.645 246.428 130.431 224.876 142.374 205.385C154.462 186.052 170.579 167.511 191.589 163.391C205.979 160.539 220.801 164.976 233.464 173.058C246.127 181.139 256.632 192.391 266.273 204.434C284.981 227.412 301.817 252.608 314.768 279.864C327.431 306.487 339.951 336.596 342.685 366.705C343.404 374.786 343.404 383.344 340.383 390.792C336.353 401.092 327.863 409.174 318.366 412.977C289.441 424.228 242.817 427.239 204.252 427.714C158.347 428.348 114.457 428.031 81.2163 428.031C24.5191 428.031 -3.68552 424.545 1.35103 393.169C4.08515 376.213 27.5411 353.552 34.0166 347.055" fill="#EFF5F9"/>
<path d="M268.72 204.751C280.52 219.013 279.656 240.247 284.981 257.52C290.737 276.219 301.673 292.383 311.458 308.705C322.107 326.136 332.324 344.835 334.626 366.07C336.785 384.928 331.029 405.053 316.783 416.779C316.063 417.413 316.783 418.681 317.502 418.047C330.022 408.539 335.634 392.376 336.353 376.212C337.36 355.294 328.295 335.486 318.653 318.213C307.285 298.088 293.615 279.547 286.132 257.203C280.232 239.772 281.527 218.379 269.151 204.117C268.864 203.641 268.288 204.275 268.72 204.751Z" fill="white"/>
<path d="M268.863 218.221C267.712 235.811 274.763 251.816 280.95 267.504C284.548 276.378 287.282 285.728 290.592 294.602C293.902 303.318 298.65 310.924 303.543 318.689C322.538 348.639 322.826 388.731 304.694 419.157C304.119 420.108 305.414 420.9 305.989 419.949C322.394 393.485 323.977 358.147 311.314 329.465C307.428 320.749 301.816 313.301 297.211 305.219C292.175 296.345 289.297 286.203 285.843 276.378C279.224 257.362 268.719 239.138 269.726 218.062C269.582 217.745 268.863 217.745 268.863 218.221Z" fill="white"/>
<path d="M252.604 187.32C259.943 205.385 257.64 226.144 261.382 245.16C265.123 264.335 272.606 282.559 279.657 300.465C287.428 320.274 296.062 339.924 302.969 360.207C306.135 369.557 307.142 379.223 306.279 389.048C305.847 394.119 304.552 399.19 302.969 403.944C302.393 405.846 297.069 420.108 294.335 417.256C293.615 416.463 292.464 417.731 293.184 418.523C297.213 422.643 301.098 412.66 302.25 409.966C305.991 401.726 307.862 392.376 308.15 383.185C308.581 372.885 305.847 363.218 302.393 353.869C298.22 342.618 293.615 331.683 289.298 320.591C280.233 297.771 270.16 274.952 264.26 250.865C259.079 229.947 262.101 206.494 253.467 186.527C253.179 186.369 252.46 186.844 252.604 187.32Z" fill="white"/>
<path d="M234.327 174.642C243.681 193.5 244.544 214.734 244.976 235.652C245.408 257.204 246.847 277.804 252.747 298.563C258.935 320.273 268.288 340.716 273.037 362.901C275.339 373.201 276.203 383.977 275.771 394.595C275.483 400.141 274.476 405.529 273.181 410.758C272.461 413.611 271.454 416.463 270.303 419.157C269.871 420.266 269.295 421.376 268.72 422.485C268 424.228 266.849 425.496 265.122 426.13C265.41 425.496 264.403 425.02 264.115 425.654C263.396 427.08 263.827 428.031 265.122 428.823C267.281 429.933 269.439 424.545 270.159 423.277C274.908 413.928 276.922 403.31 277.498 392.693C278.793 367.497 269.727 343.41 261.669 320.432C257.208 307.755 253.035 294.919 250.3 281.608C247.71 268.455 246.991 254.985 246.559 241.515C245.983 218.696 245.983 194.451 235.047 174.167C234.759 173.691 234.04 174.167 234.327 174.642Z" fill="white"/>
<path d="M220.513 172.899C230.298 195.243 227.276 220.439 228.715 244.368C230.154 269.089 235.191 294.127 240.371 318.214C242.961 330.257 246.703 341.508 250.156 353.235C253.754 365.437 244.4 376.213 243.249 388.098C242.098 399.824 243.537 411.392 242.242 423.119C241.81 426.922 245.695 429.299 245.552 425.179C245.552 424.862 245.408 424.545 245.12 424.545C244.976 424.545 244.832 424.387 244.544 424.387C243.969 424.228 243.537 425.179 244.113 425.496C243.393 425.179 244.688 412.026 244.688 410.758C244.688 405.212 244.4 399.666 244.4 394.119C244.544 387.464 245.695 381.284 248.142 375.262C249.725 371.142 251.452 367.18 252.315 362.743C254.186 353.552 248.43 343.093 245.983 334.377C242.817 323.285 240.515 311.875 238.357 300.465C234.183 277.805 230.01 254.985 229.435 232.008C228.859 211.724 229.435 190.965 220.945 172.265C220.945 172.107 220.369 172.424 220.513 172.899Z" fill="white"/>
<path d="M211.303 170.363C215.62 194.767 213.03 219.488 211.303 244.05C210.44 255.618 209.864 267.345 210.296 279.072C210.728 290.957 212.599 302.683 214.757 314.41C216.916 326.453 218.93 338.338 220.657 350.54C221.664 358.147 224.398 367.179 219.362 373.676C216.484 377.321 214.038 380.966 211.879 385.244C204.252 400.933 204.54 420.741 212.023 436.429C212.311 437.063 213.03 437.063 213.462 436.588C214.613 435.32 215.764 434.211 216.916 432.943C217.491 432.309 216.772 431.358 216.052 431.834C214.757 432.943 213.462 434.052 212.167 435.32C212.599 435.32 213.03 435.479 213.606 435.479C204.684 416.463 206.986 392.851 219.506 376.529C221.376 373.993 223.823 371.458 223.967 367.972C224.254 362.742 223.247 357.513 222.528 352.442C220.801 339.606 218.642 326.77 216.34 314.093C214.038 301.891 212.167 289.689 211.735 277.17C211.303 264.81 212.167 252.291 213.03 239.93C214.613 216.636 216.34 193.341 212.023 170.363C212.023 169.571 211.159 169.888 211.303 170.363Z" fill="white"/>
<path d="M202.522 171.155C199.069 224.241 194.32 277.486 197.486 330.889C198.205 343.408 201.371 357.195 199.356 369.555C198.349 376.053 193.6 380.331 190.147 385.402C187.413 389.364 185.83 394.118 184.535 398.872C181.657 409.331 176.764 438.172 191.154 441.658C192.161 441.975 192.737 440.232 191.586 439.915C181.944 436.904 183.383 422.167 183.959 413.768C184.822 402.041 187.7 391.265 194.896 382.233C200.795 374.785 202.235 367.654 201.515 357.829C200.652 345.785 199.5 333.742 198.781 321.54C196.335 271.306 200.652 221.072 203.242 170.996C203.386 170.521 202.666 170.521 202.522 171.155Z" fill="white"/>
<path d="M192.74 164.659C179.357 216.002 177.918 269.881 178.206 322.967C178.35 336.279 178.494 349.59 178.782 363.06C178.782 365.912 178.925 368.606 178.782 371.458C178.638 377.322 175.328 380.65 171.443 383.819C167.269 387.147 163.384 390.791 160.074 395.07C150.577 407.272 148.562 430.25 164.391 437.539C165.255 438.015 165.974 436.272 165.111 435.796C155.326 430.408 152.591 418.048 155.901 407.114C159.355 395.545 168.708 389.524 176.479 381.917C183.099 375.42 180.652 362.743 180.508 354.185C180.364 341.508 180.077 328.989 180.077 316.312C179.789 265.444 181.803 214.259 193.603 164.976C193.603 164.342 192.884 164.183 192.74 164.659Z" fill="white"/>
<path d="M177.487 170.205C161.082 221.389 164.968 276.061 162.378 329.464C162.09 335.961 161.514 342.3 161.082 348.797C160.363 356.404 160.363 365.119 157.629 372.092C155.47 377.321 148.851 379.54 144.678 381.917C140.936 383.977 137.77 386.988 135.036 390.315C124.531 402.993 121.797 423.911 130 438.806C130.575 439.916 132.158 438.965 131.583 437.856C122.949 419.315 128.129 395.545 144.534 384.611C151.729 379.698 159.068 378.272 160.939 367.972C163.241 355.453 163.817 342.3 164.536 329.623C167.27 276.536 162.953 222.023 178.638 170.68C178.495 169.888 177.631 169.571 177.487 170.205Z" fill="white"/>
<path d="M159.354 175.118C142.806 230.264 147.842 289.214 137.769 345.628C136.474 352.601 135.323 360.049 132.445 366.546C129.711 372.726 123.811 375.895 118.342 378.748C109.277 383.343 102.082 388.097 97.0451 397.922C92.4402 407.272 91.1451 418.365 91.0012 428.823C90.8573 437.539 94.4548 449.107 104.24 447.522C105.247 447.364 104.96 445.621 103.952 445.621C88.5549 446.889 92.8719 419.949 95.0304 409.966C97.6207 398.239 103.665 388.89 113.594 383.502C121.364 379.223 129.423 376.529 134.172 367.655C136.618 363.06 137.481 357.513 138.489 352.442C139.928 345.47 141.079 338.497 142.086 331.525C149.425 279.548 146.115 225.986 160.65 175.435C160.65 174.642 159.642 174.325 159.354 175.118Z" fill="white"/>
<path d="M138.776 206.811C131.005 229.313 125.825 252.608 123.522 276.537C121.076 301.733 123.379 328.197 113.018 351.65C108.413 361.951 101.218 369.24 92.7276 375.737C86.1081 380.65 78.913 385.404 74.0204 392.535C64.8107 405.846 66.6814 425.496 79.6326 435.004C80.496 435.638 81.5033 434.212 80.6399 433.578C73.0131 426.922 69.1278 417.097 70.4229 406.48C71.718 396.338 79.2008 389.207 86.252 383.502C92.4398 378.59 99.0592 374.311 104.671 368.448C111.147 361.792 115.32 352.918 118.198 343.885C124.961 323.126 123.379 300.307 125.105 278.755C126.976 254.351 132.013 230.106 139.639 207.128C139.783 206.494 138.92 206.177 138.776 206.811Z" fill="white"/>
<path d="M118.63 241.356C115.32 251.498 112.154 261.64 109.564 272.099C106.83 283.191 105.823 294.76 104.24 306.011C101.218 326.928 93.4471 345.469 79.7765 360.365C67.401 373.835 48.9817 378.747 40.9232 396.654C35.1672 409.49 38.9086 427.238 51.7158 432.626C52.5792 432.943 53.0109 431.517 52.2914 431.2C44.5207 426.763 40.3476 418.522 40.2037 409.014C40.0598 399.189 45.9597 390.315 52.4353 384.294C59.1987 377.955 67.6888 374.152 74.8839 368.13C80.6399 363.217 85.6765 357.196 90.1374 350.857C100.067 336.595 104.384 319.956 106.686 302.366C107.981 292.382 108.988 282.399 111.147 272.574C113.306 262.115 116.471 251.973 119.637 241.673C119.637 241.039 118.774 240.722 118.63 241.356Z" fill="white"/>
<path d="M101.937 258.471C89.8495 295.394 77.9056 333.743 50.7083 360.683C44.3766 367.021 37.0376 371.458 29.8425 376.371C23.9426 380.332 20.6329 386.354 18.1865 393.168C12.8622 408.698 13.5817 427.714 19.9133 442.769C20.3451 443.719 21.928 443.085 21.4963 441.976C15.7402 424.228 14.4451 404.103 22.9353 386.988C27.1084 378.748 35.7425 375.262 42.5059 370.191C48.6936 365.595 54.3058 360.049 59.3424 354.027C81.9349 327.88 93.1592 292.225 102.944 258.471C103.232 258.154 102.225 257.837 101.937 258.471Z" fill="white"/>
<path d="M82.9435 283.984C71.8631 293.65 68.9851 309.655 62.9412 323.125C55.0266 340.398 39.917 351.966 26.9659 364.168C15.3099 375.102 4.22948 388.096 0.91975 405.052C-1.67047 417.73 1.06365 433.101 10.9928 441.024C11.7123 441.5 12.4319 440.391 11.8563 439.757C1.35145 428.664 -0.0875594 412.659 4.94899 397.921C10.5611 381.282 24.5196 369.239 36.4634 358.305C47.256 348.48 57.9047 338.021 64.5241 324.076C70.8558 310.765 73.0143 295.076 83.663 284.776C84.2386 284.459 83.5191 283.508 82.9435 283.984Z" fill="white"/>
<g opacity="0.62">
<path opacity="0.62" d="M306.134 315.361C297.788 314.252 289.585 311.082 282.39 306.328C280.376 305.061 278.217 303.317 277.21 300.94C275.483 297.137 277.066 292.542 278.793 288.738C282.102 281.291 286.132 274.16 288.722 266.395C291.312 258.63 292.607 249.914 290.161 241.991C289.01 238.504 287.859 234.86 286.707 231.373C280.232 222.024 273.468 212.991 266.417 204.434C256.776 192.549 246.127 181.139 233.608 173.058C220.944 164.976 206.123 160.539 191.732 163.391C170.723 167.511 154.606 185.893 142.518 205.385C130.431 224.718 120.789 246.269 105.248 262.274L34.4484 347.054C27.8289 353.71 4.51693 376.212 1.7828 393.168C-3.25374 424.545 25.0948 428.031 81.648 428.031C93.304 428.031 106.255 428.031 120.214 428.031C127.696 425.179 135.179 422.326 142.518 419.474C155.038 414.72 168.133 409.807 181.228 411.55C189.286 412.501 196.337 416.78 204.396 417.097C214.037 417.414 223.535 417.731 233.176 418.206C233.752 418.206 234.327 418.206 234.759 417.889C235.91 416.938 234.759 414.878 233.896 413.452C232.457 410.6 233.608 406.955 235.766 404.736C237.925 402.518 240.659 401.409 243.537 400.458C268.72 390.791 293.471 378.589 315.488 361.95C321.388 357.513 327.287 352.442 330.741 345.47C334.195 338.497 334.483 329.148 329.878 323.284C323.978 316.312 314.48 316.47 306.134 315.361Z" fill="#D7E9F2"/>
</g>
<path d="M156.334 403.47C156.334 403.47 138.922 408.066 134.893 410.126C127.698 413.929 119.208 421.377 115.898 420.268C113.308 419.475 114.171 414.087 115.754 409.967C117.049 406.639 121.366 403.787 125.683 399.191C128.993 395.547 133.022 397.765 135.324 397.131C136.764 396.656 157.054 383.503 157.054 383.503" fill="#FC4F5A"/>
<path d="M163.097 360.208C166.406 363.853 182.955 364.17 182.955 364.17L143.814 394.596L146.98 406.798C146.98 406.798 271.454 392.694 313.617 356.881C335.778 338.023 330.886 321.859 323.115 311.717C300.81 282.242 206.267 303.636 206.267 303.636L157.628 299.674" fill="#021C3D"/>
<path d="M198.067 403.47C198.067 403.47 214.759 407.907 218.644 409.809C225.552 413.454 231.739 420.585 234.905 419.475C237.352 418.683 237.352 413.454 235.913 409.492C234.761 406.323 231.164 403.946 227.566 399.033C225.264 395.864 220.515 398.875 218.357 398.241C217.061 397.924 197.491 383.82 197.491 383.82" fill="#FC4F5A"/>
<path d="M193.461 360.208C190.151 363.852 179.502 368.765 179.502 368.765L212.744 394.595L209.578 406.797C209.578 406.797 88.9885 390.475 44.523 357.989C22.5061 341.984 24.2329 322.968 33.4426 314.411C63.0863 286.204 150.29 303.476 150.29 303.476L192.453 305.695L193.461 360.208Z" fill="#021C3D"/>
<path d="M81.936 308.548C81.936 308.548 99.492 311.084 124.243 326.93C136.475 334.854 212.742 394.596 212.742 394.596" stroke="#4E6A89" stroke-width="0.75" stroke-miterlimit="10"/>
<path d="M274.623 308.548C274.623 308.548 257.067 311.084 232.316 326.931C220.084 334.854 178.785 367.34 178.785 367.34" stroke="#4E6A89" stroke-width="0.75" stroke-miterlimit="10"/>
<path d="M144.825 395.547C157.92 399.192 178.066 401.569 178.066 401.569" stroke="#4E6A89" stroke-width="0.75" stroke-miterlimit="10"/>
<path d="M126.832 183.517C126.256 223.609 114.744 272.575 110.715 298.723C122.946 312.192 159.497 319.165 180.507 320.591C201.517 322.017 240.658 316.312 257.206 298.247C257.206 298.247 239.938 178.763 232.455 161.649L203.675 126.786L161.512 130.906L126.832 183.517Z" fill="#F59D00"/>
<path d="M104.096 186.212C113.593 187.004 123.091 187.48 132.588 188.747C139.208 184.786 145.827 180.824 152.303 176.545L164.678 126.628C164.678 126.628 137.049 129.639 115.464 153.409C109.133 160.382 101.506 171.95 94.4546 185.261C97.6204 185.578 100.93 185.895 104.096 186.212Z" fill="#F59D00"/>
<path d="M199.36 125.677C199.36 125.677 221.521 129.005 240.516 145.01C252.604 155.152 260.662 170.84 266.994 185.736C273.613 201.424 278.938 218.38 281.384 235.495C283.542 250.232 281.672 269.248 265.123 271.625C255.05 273.051 245.696 264.97 239.077 257.68C225.55 242.943 215.189 224.085 206.843 205.386C206.699 205.228 206.699 205.069 206.555 204.752" fill="#F59D00"/>
<path d="M169.716 91.4476L170.867 124.884C170.867 124.884 165.255 126.627 161.514 126.944C161.082 128.846 160.938 140.255 179.933 140.255C198.784 140.255 203.821 126.786 203.821 126.786L194.899 124.567L190.438 93.5076" fill="#FC4F5A"/>
<path d="M125.394 207.605C125.394 207.605 129.28 187.004 136.187 169.255" stroke="#A87162" stroke-width="0.5" stroke-miterlimit="10"/>
<path d="M234.036 150.397C235.475 150.238 237.346 149.129 238.785 149.921C240.08 150.555 240.799 151.823 242.382 152.14C243.246 152.298 243.534 150.872 242.67 150.714C241.087 150.397 240.368 148.812 238.785 148.337C237.058 147.861 235.619 148.812 233.892 148.812C233.173 148.971 233.173 150.397 234.036 150.397Z" fill="white"/>
<path d="M212.742 184.625C213.605 184.625 213.605 183.199 212.742 183.199C211.879 183.199 211.879 184.625 212.742 184.625Z" fill="white"/>
<path d="M243.249 207.445C242.817 208.554 242.386 209.98 243.249 210.931C243.968 211.882 245.12 212.199 245.839 213.15C246.415 213.784 247.278 212.833 246.703 212.199C246.127 211.565 245.408 211.09 244.832 210.614C243.968 209.98 243.968 209.188 244.4 208.237C244.688 207.286 243.537 206.494 243.249 207.445Z" fill="white"/>
<path d="M248.719 179.396C249.726 179.396 250.733 179.713 251.597 180.506C252.316 181.139 252.892 179.872 252.316 179.238C251.309 178.446 250.158 177.97 248.862 177.97C247.855 177.97 247.855 179.396 248.719 179.396Z" fill="white"/>
<path d="M173.025 205.86C172.018 207.92 171.586 210.614 173.025 212.674C173.601 213.466 174.464 212.357 173.888 211.723C172.881 210.297 173.457 208.078 174.176 206.652C174.464 205.86 173.313 205.068 173.025 205.86Z" fill="white"/>
<path d="M156.186 240.406C158.057 240.089 159.64 239.138 161.367 238.821C162.23 238.663 162.23 237.237 161.367 237.395C159.496 237.712 157.913 238.663 156.186 238.98C155.323 238.98 155.323 240.406 156.186 240.406Z" fill="white"/>
<path d="M105.249 212.199C105.249 214.259 106.544 215.844 108.414 216.478C109.278 216.794 109.566 215.368 108.702 215.051C107.551 214.576 106.544 213.625 106.544 212.04C106.544 211.248 105.249 211.248 105.249 212.199Z" fill="white"/>
<path d="M178.492 292.542C178.492 294.602 179.787 296.187 181.658 296.821C182.521 297.138 182.809 295.711 181.945 295.394C180.794 294.919 179.787 293.968 179.787 292.383C179.787 291.591 178.492 291.591 178.492 292.542Z" fill="white"/>
<path d="M192.453 261.482C195.043 259.738 197.633 258.154 200.367 260.531C201.087 261.165 201.662 259.897 201.087 259.263C197.921 256.569 194.899 258.312 191.877 260.214C191.014 260.848 191.733 261.957 192.453 261.482Z" fill="white"/>
<path d="M237.202 291.907C239.792 290.164 242.382 288.58 245.116 290.957C245.836 291.591 246.411 290.323 245.836 289.689C242.67 286.995 239.648 288.738 236.626 290.64C235.763 291.115 236.482 292.383 237.202 291.907Z" fill="white"/>
<path d="M122.948 291.907C125.539 290.164 128.129 288.58 130.863 290.957C131.583 291.591 132.158 290.323 131.583 289.689C128.417 286.995 125.395 288.738 122.373 290.64C121.653 291.115 122.229 292.383 122.948 291.907Z" fill="white"/>
<path d="M216.916 253.242C218.642 252.925 220.657 251.341 220.657 249.281C220.657 248.33 219.362 248.33 219.362 249.281C219.362 250.707 217.635 251.658 216.484 251.816C215.764 251.975 216.052 253.401 216.916 253.242Z" fill="white"/>
<path d="M227.134 299.039C228.861 298.722 230.876 297.137 230.876 295.077C230.876 294.126 229.581 294.126 229.581 295.077C229.581 296.503 227.854 297.454 226.703 297.612C225.983 297.771 226.415 299.197 227.134 299.039Z" fill="white"/>
<path d="M212.311 290.322C212.023 289.213 211.591 288.104 211.735 286.995C211.735 285.885 212.886 285.093 213.606 284.459C214.325 283.825 213.318 282.874 212.742 283.508C211.735 284.301 210.872 285.251 210.584 286.678C210.296 287.945 210.872 289.53 211.159 290.798C211.303 291.59 212.455 291.273 212.311 290.322Z" fill="white"/>
<path d="M137.05 207.92C138.345 209.029 140.072 209.188 141.367 207.92C141.943 207.286 141.08 206.335 140.504 206.969C139.784 207.603 138.777 207.603 138.058 206.969C137.338 206.335 136.475 207.286 137.05 207.92Z" fill="white"/>
<path d="M114.746 175.275C116.185 174.008 117.048 172.423 117.768 170.68C118.199 169.888 117.048 169.095 116.616 169.888C115.753 171.472 115.033 173.057 113.738 174.166C113.163 174.958 114.026 175.909 114.746 175.275Z" fill="white"/>
<path d="M163.814 163.233C164.677 162.757 165.828 162.757 166.836 162.757C167.699 162.757 167.699 161.331 166.836 161.331C165.541 161.331 164.245 161.331 163.238 161.965C162.519 162.441 163.094 163.708 163.814 163.233Z" fill="white"/>
<path d="M153.6 147.702C154.608 146.593 156.622 147.068 157.917 147.068C158.781 147.068 158.781 145.642 157.917 145.642C156.191 145.642 154.176 145.166 152.737 146.593C152.017 147.226 153.025 148.336 153.6 147.702Z" fill="white"/>
<path d="M205.98 150.872C205.836 152.932 204.972 154.833 205.116 156.893C205.116 158.953 206.699 160.063 208.282 160.697C209.002 161.014 209.433 159.587 208.57 159.27C206.699 158.478 206.124 157.21 206.555 155.15C206.843 153.724 207.275 152.298 207.275 150.713C207.419 149.921 206.124 149.921 205.98 150.872Z" fill="white"/>
<path d="M192.741 183.674C193.316 183.674 193.748 183.833 194.323 183.991C195.187 184.308 195.475 182.882 194.611 182.565C194.036 182.407 193.316 182.248 192.741 182.09C191.877 182.248 191.877 183.674 192.741 183.674Z" fill="white"/>
<path d="M249.148 227.412C250.443 227.095 251.162 228.204 251.162 229.63C251.162 230.581 252.458 230.581 252.458 229.63C252.458 228.521 252.17 227.57 251.594 226.778C250.875 225.827 249.867 225.827 248.86 225.985C247.853 226.144 248.284 227.57 249.148 227.412Z" fill="white"/>
<path d="M262.532 209.504C263.683 209.504 264.69 209.504 265.842 209.504C266.705 209.504 266.705 208.078 265.842 208.078C264.69 208.078 263.683 208.078 262.532 208.078C261.812 208.078 261.812 209.504 262.532 209.504Z" fill="white"/>
<path d="M152.879 299.989C152.448 301.098 151.728 301.891 151.009 302.683C150.433 303.317 151.296 304.426 151.872 303.634C152.735 302.683 153.743 301.574 154.174 300.306C154.462 299.514 153.167 299.038 152.879 299.989Z" fill="white"/>
<path d="M224.828 83.8391L208.135 75.1234L207.704 75.9157L224.54 84.7899C224.684 84.473 224.684 84.156 224.828 83.8391Z" fill="#581550"/>
<path d="M166.408 53.0973C166.408 53.0973 143.384 53.7312 149.427 77.0258C155.471 100.32 170.293 67.8347 170.293 67.8347L176.912 47.0756L166.408 53.0973Z" fill="#581550"/>
<path d="M203.532 116.801C223.103 109.354 215.188 68.9444 215.188 68.9444L212.454 58.6441C212.454 58.6441 199.215 52.3054 198.928 52.1469C198.64 51.9884 187.847 46.759 185.976 46.6006C183.962 46.4421 180.508 54.5239 180.508 54.5239L168.996 76.8678C167.413 66.7259 158.347 65.4581 158.347 76.0754C158.347 88.7528 169.716 91.2883 169.716 91.2883C169.716 91.2883 177.774 126.785 203.532 116.801Z" fill="#FC4F5A"/>
<path d="M166.405 74.0154C163.239 73.54 160.217 76.5509 160.505 80.1956C160.505 80.8295 161.368 80.8295 161.368 80.1956C161.08 77.1847 163.527 74.4908 166.261 74.9662C166.693 74.9662 166.98 74.0154 166.405 74.0154Z" fill="#1C232B"/>
<path d="M162.088 76.5508C163.384 77.1847 164.391 78.4525 164.823 79.8787C164.967 80.3541 165.686 80.1956 165.542 79.7202C165.11 77.9771 163.959 76.5508 162.376 75.7585C161.945 75.6 161.513 76.3924 162.088 76.5508Z" fill="#1C232B"/>
<path d="M168.853 77.026L180.365 54.6821C180.365 54.6821 183.819 46.6003 185.833 46.7588C187.848 46.9172 198.497 52.1467 198.785 52.3051C199.072 52.4636 212.311 58.8023 212.311 58.8023L215.045 69.1026C215.045 69.1026 215.477 71.3212 215.909 74.9659C205.692 71.7966 201.519 59.5946 201.519 59.5946C197.633 71.3212 183.819 62.9224 183.819 62.9224C185.402 77.3429 168.853 77.026 168.853 77.026Z" fill="#C92736"/>
<path d="M201.517 58.6432C201.517 58.6432 207.273 75.4407 221.807 74.8068C236.341 74.1729 237.348 58.0093 226.987 52.7799C226.987 52.7799 235.19 38.8348 225.261 32.1791C215.331 25.5235 207.993 34.2392 207.993 34.2392C207.993 34.2392 201.085 15.3816 189.285 19.5018C177.485 23.6219 178.637 36.7747 178.637 36.7747C178.637 36.7747 164.246 29.8021 160.361 38.6763C156.476 47.5505 161.944 53.2553 161.944 53.2553L158.922 71.6375C158.922 71.6375 162.664 62.4464 168.851 76.8669C168.851 76.8669 185.4 76.3915 183.961 61.8125C183.961 61.971 197.776 70.3697 201.517 58.6432Z" fill="#581550"/>
<path d="M204.786 83.9866L204.1 84.2272L207.028 94.3434L207.714 94.1028L204.786 83.9866Z" fill="#160539"/>
<path d="M197.899 79.5956L191.515 83.2499L192.511 85.359L198.895 81.7047L197.899 79.5956Z" fill="#160539"/>
<path d="M210.51 75.9717L210.195 78.3232L216.602 79.3622L216.916 77.0107L210.51 75.9717Z" fill="#160539"/>
<path d="M198.209 86.6925C198.496 87.4849 198.065 88.2772 197.489 88.5941C196.913 88.7526 196.194 88.2772 195.906 87.4849C195.618 86.6925 196.05 85.9002 196.626 85.5833C197.345 85.2663 198.065 85.7417 198.209 86.6925Z" fill="#160539"/>
<path d="M213.894 81.3042C214.182 82.0966 213.751 82.8889 213.175 83.2058C212.599 83.3643 211.88 82.8889 211.592 82.0966C211.304 81.3042 211.736 80.5119 212.312 80.195C213.031 80.0365 213.751 80.5119 213.894 81.3042Z" fill="#160539"/>
<path d="M210.729 98.8943C211.017 100.162 210.729 101.43 209.866 101.747C209.002 102.064 208.139 101.271 207.707 100.004C207.419 98.7359 207.707 97.4681 208.57 97.1512C209.434 96.8342 210.441 97.6266 210.729 98.8943Z" fill="#160539"/>
<path d="M203.532 93.8234C203.964 95.5665 202.381 97.7851 199.791 98.5774C197.2 99.3697 194.754 98.7359 194.179 96.9927C193.747 95.2496 195.33 93.031 197.92 92.2387C200.51 91.2879 202.957 91.9218 203.532 93.8234Z" fill="#C92736"/>
<path d="M214.038 86.6924C211.448 87.4847 209.721 89.7033 210.296 91.4464C210.728 93.1895 213.318 93.9819 215.909 93.0311C216.196 92.8726 216.628 92.7141 216.916 92.5557C217.06 90.3371 217.06 88.277 217.06 86.217C216.053 86.217 215.045 86.3754 214.038 86.6924Z" fill="#C92736"/>
<path d="M196.628 96.5178C191.735 97.7856 186.698 94.7747 185.259 89.3868C184.54 86.6929 184.828 83.8404 185.979 81.305C187.13 78.7695 189.145 77.0264 191.591 76.234C196.628 74.4909 201.952 77.6602 203.535 83.2066C204.254 85.9005 203.967 88.7529 202.815 91.2884C201.664 93.8239 199.65 95.567 197.203 96.3594C196.915 96.3594 196.772 96.3594 196.628 96.5178ZM192.311 76.8679C192.167 76.8679 192.023 77.0264 191.879 77.0264C189.576 77.8187 187.706 79.4034 186.698 81.7804C185.547 83.9989 185.403 86.6929 185.979 89.2283C187.418 94.2993 192.311 97.3102 197.059 95.7255C199.362 94.9332 201.232 93.3485 202.24 90.9715C203.391 88.7529 203.535 86.059 202.815 83.5235C201.376 78.4526 196.772 75.6001 192.311 76.8679Z" fill="#581550"/>
<path d="M218.213 92.397C213.32 93.6647 208.284 90.6538 206.845 85.266C206.125 82.572 206.413 79.7196 207.564 77.1841C208.716 74.6486 210.73 72.9055 213.177 72.1132C218.213 70.37 223.537 73.5394 225.12 79.0857C226.703 84.6321 223.825 90.4954 218.789 92.2385C218.501 92.2385 218.357 92.2385 218.213 92.397ZM213.752 72.5886C213.608 72.5886 213.464 72.747 213.32 72.747C211.018 73.5394 209.147 75.124 208.14 77.5011C206.989 79.7196 206.845 82.4135 207.564 84.949C209.003 90.02 213.896 93.0308 218.645 91.4462C223.25 89.8615 225.984 84.4736 224.545 79.2442C222.962 74.3317 218.357 71.4793 213.752 72.5886Z" fill="#581550"/>
<path d="M206.365 83.0172L203.206 84.1026L203.42 84.859L206.579 83.7736L206.365 83.0172Z" fill="#581550"/>
<path d="M185.404 84.4738L168.711 75.7581L168.28 76.5504L185.116 85.4246C185.26 85.1076 185.404 84.7907 185.404 84.4738Z" fill="#581550"/>
<path d="M226.701 56.7428C229.436 60.3875 233.177 67.8355 227.565 70.5294C227.421 70.6879 227.421 71.0048 227.709 70.8463C228.86 70.3709 230.011 69.4201 230.587 68.1524C231.019 67.0431 231.019 65.6169 230.875 64.3492C230.299 61.4968 228.86 58.6444 227.133 56.4258C226.701 56.2673 226.558 56.4258 226.701 56.7428Z" fill="white"/>
<path d="M225.407 71.0037C225.263 71.1622 225.263 71.1622 225.407 71.0037C225.263 71.1622 225.263 71.1622 225.263 71.1622C225.263 71.1622 225.263 71.1622 225.119 71.1622H224.975H224.831C224.688 71.1622 224.688 71.3206 224.688 71.3206C224.688 71.4791 224.831 71.4791 224.831 71.4791C225.119 71.4791 225.263 71.4791 225.407 71.3206C225.551 71.1622 225.695 71.0037 225.839 70.8452C225.839 70.6868 225.839 70.6868 225.839 70.5283C225.551 70.8452 225.407 71.0037 225.407 71.0037Z" fill="white"/>
<path d="M219.219 71.7966C218.5 71.7966 217.924 71.4796 217.348 71.3212C217.06 71.3212 217.06 71.6381 217.204 71.6381C217.924 71.7966 218.5 72.1135 219.075 72.1135C219.219 72.1135 219.219 71.9551 219.219 71.9551C219.363 71.9551 219.363 71.7966 219.219 71.7966Z" fill="white"/>
<path d="M203.963 59.5937C203.963 58.6429 203.675 57.8506 203.388 57.0582C202.956 56.1074 202.524 55.3151 201.805 54.6812C200.941 53.7304 199.071 52.4627 198.207 54.0474C197.775 54.8397 197.775 55.7905 197.775 56.5828C197.775 56.8998 198.063 56.8998 198.063 56.5828C198.063 55.632 198.063 53.4135 199.358 53.7304C200.797 54.0474 201.949 55.632 202.668 56.8998C203.1 57.6921 203.388 58.6429 203.244 59.4353C203.675 59.9107 203.963 59.9107 203.963 59.5937Z" fill="white"/>
<path d="M180.652 59.2778C180.94 61.0209 181.228 62.764 180.94 64.5072C180.652 66.0918 179.932 67.518 178.925 68.7858C176.047 71.7967 171.73 73.0644 167.845 73.0644C167.557 73.0644 167.557 73.5398 167.845 73.3813C171.874 73.3813 176.335 71.9551 179.213 68.7858C180.364 67.6765 181.084 66.2503 181.228 64.5072C181.515 62.764 181.228 60.8624 180.94 58.9608C180.94 58.9608 180.652 59.1193 180.652 59.2778Z" fill="white"/>
<path d="M204.828 34.0812C205.259 31.0703 203.101 28.0594 201.23 26.1578C198.784 23.7808 195.474 22.5131 192.164 22.5131C188.998 22.5131 186.408 23.6223 184.681 26.4747C183.818 27.9009 183.242 29.6441 182.954 31.3872C182.667 33.2888 182.523 35.1904 183.098 37.092C183.098 37.409 183.53 37.2505 183.386 36.9336C182.954 35.3489 183.098 33.6058 183.242 32.0211C183.386 30.278 183.818 28.6933 184.681 27.2671C185.545 25.8409 186.696 24.4147 188.135 23.7808C189.43 23.3054 190.725 23.1469 192.164 23.1469C195.186 23.1469 198.352 24.4147 200.654 26.4747C202.525 28.2179 204.828 31.2288 204.396 34.2396C204.396 34.2396 204.684 34.3981 204.828 34.0812Z" fill="white"/>
<path d="M182.667 38.2012C182.379 38.6766 182.379 39.152 182.092 39.4689C181.948 39.9443 181.66 40.2613 181.228 40.4197C180.94 40.4197 181.084 40.8951 181.372 40.7367C182.379 40.4197 182.523 39.152 182.955 38.2012C183.099 38.2012 182.811 38.0427 182.667 38.2012Z" fill="white"/>
<path d="M161.514 39.7863C160.651 42.0048 159.643 44.5403 160.363 46.9173C160.651 48.1851 161.37 49.2943 162.09 50.2451C162.809 51.3544 163.673 52.4637 164.536 53.7314C164.68 53.8899 164.968 53.7314 164.824 53.573C163.529 51.6713 161.946 49.7697 160.939 47.5512C159.931 45.0157 160.795 42.3218 161.802 40.1032C161.802 39.7863 161.514 39.6278 161.514 39.7863Z" fill="white"/>
<path d="M225.261 52.305C224.974 51.8296 224.83 51.3542 224.83 50.7203C224.83 50.2449 224.974 49.611 225.405 49.1356C225.549 48.9772 225.261 48.6602 225.117 48.8187C224.686 49.2941 224.542 49.928 224.398 50.5618C224.398 51.1957 224.398 51.988 224.83 52.4635C225.117 52.7804 225.405 52.4635 225.261 52.305Z" fill="white"/>
<path d="M226.987 46.2839C227.13 45.9669 227.274 45.4915 227.418 45.1746C227.418 45.0161 227.418 45.0161 227.274 44.8577C227.13 44.8577 227.13 44.8577 226.987 45.0161C226.987 45.1746 226.843 45.3331 226.843 45.4915V45.65C226.843 45.8085 226.699 45.8085 226.699 45.9669C226.699 46.1254 226.699 46.1254 226.699 46.2839C226.843 46.4423 226.987 46.4423 226.987 46.2839Z" fill="white"/>
<path d="M182.091 42.955C181.516 39.6272 178.35 36.6163 176.335 34.2393C174.033 31.5453 171.443 28.376 168.564 26.4744C168.421 26.4744 168.564 26.3159 168.708 26.3159C172.018 28.376 174.752 31.8623 177.342 35.0316C179.213 37.2502 181.947 39.9441 182.379 42.955C182.235 43.1134 182.091 43.1134 182.091 42.955Z" fill="#581550"/>
<path d="M183.819 43.4308C182.667 40.42 180.077 38.5184 177.775 36.4583C174.897 33.9228 171.731 31.8627 168.133 31.0704C167.989 31.0704 168.133 30.9119 168.133 30.9119C171.443 31.5458 174.465 33.2889 177.055 35.5075C179.645 37.726 182.667 39.9446 183.962 43.2724C183.962 43.4308 183.819 43.4308 183.819 43.4308Z" fill="#581550"/>
<path d="M194.036 118.544C194.036 118.544 185.258 116.326 182.38 109.195C182.38 109.195 184.682 122.981 194.612 124.408L194.036 118.544Z" fill="#160539"/>
<path d="M242.532 244.526C242.532 244.526 261.815 295.553 275.341 285.569C288.868 275.427 275.773 216.161 275.773 216.161" fill="#FC4F5A"/>
<path d="M221.953 133.282C221.953 133.282 252.028 147.544 263.396 166.719C268.433 175.276 280.233 202.374 286.708 228.996C273.325 249.914 254.474 252.291 238.501 248.488C228.284 219.171 224.831 184.15 224.831 184.15" fill="#F59D00"/>
<path d="M291.312 203.165C290.449 201.264 289.873 199.837 289.873 196.351C289.873 192.865 291.168 188.903 292.032 185.417C292.751 182.723 293.471 180.029 294.19 177.335C294.478 176.543 294.766 175.592 295.485 175.275C296.205 174.958 296.924 175.433 297.5 176.067C297.932 176.701 298.075 177.494 298.219 178.286C298.363 179.712 298.363 181.138 298.075 182.564C297.931 183.357 297.788 184.149 297.788 185.1C297.788 185.892 298.219 186.843 298.939 187.16C300.522 187.952 301.817 185.734 303.4 185.258C303.544 185.258 303.831 185.258 303.975 185.258C304.263 185.417 304.407 185.892 304.551 186.209C305.127 189.379 303.112 192.389 301.385 195.083C299.658 197.619 298.219 202.214 296.493 204.75" fill="#FC4F5A"/>
<path d="M321.389 139.304L301.674 192.865L277.499 172.106C276.06 172.106 275.197 170.997 275.484 169.729L290.738 119.812C291.026 119.02 291.889 118.544 292.752 118.544L321.389 139.304Z" fill="#152E4A"/>
<path d="M315.923 141.363L297.216 192.073L274.336 172.423C272.897 172.423 272.033 171.313 272.465 170.204L286.855 123.139C287.143 122.347 288.006 121.872 288.87 121.555L315.923 141.363Z" fill="#FFF1DC"/>
<path d="M314.051 138.511L312.612 137.402L278.651 137.878L267.571 174.642L304.697 172.582L314.051 138.511Z" fill="#EFCEA3"/>
<path d="M315.922 141.364L288.868 121.714L291.027 120.763L318.224 140.413L299.517 191.281L298.078 190.013L315.922 141.364Z" fill="#EFCEA3"/>
<path d="M321.39 139.304L301.675 192.866L262.534 193.817C261.095 193.817 260.232 192.708 260.519 191.44L275.773 141.364C276.061 140.572 276.924 140.096 277.788 140.096L321.39 139.304Z" fill="#152E4A"/>
<path opacity="0.35" d="M312.47 144.851L309.16 154.042L277.646 155.31L280.38 145.96L312.47 144.851Z" fill="#2A3047"/>
<path d="M299.66 205.226C302.106 202.691 305.991 196.986 307.718 187.478C307.718 185.735 306.711 185.735 305.991 184.15C304.984 182.09 303.833 179.396 301.818 178.287C300.523 177.653 299.228 177.019 297.933 176.385C297.214 176.068 296.206 175.91 295.918 176.544C295.631 177.019 295.918 177.653 296.206 178.128C297.789 180.822 301.243 182.09 302.25 185.259C302.394 185.576 302.394 185.735 302.25 186.052C302.106 186.369 301.962 186.527 301.818 186.686C300.092 188.27 298.509 189.855 297.07 191.757C294.767 194.926 292.465 199.997 294.767 203.959" fill="#FC4F5A"/>
<path d="M306.424 192.39C306.424 192.39 309.302 183.041 309.014 177.97C308.87 174.959 307.575 172.107 306.136 169.413C305.848 168.937 305.705 168.462 305.273 168.145C304.841 167.828 304.266 167.828 303.978 168.303C303.834 168.462 303.834 168.779 303.834 169.096C303.69 172.424 305.129 175.593 305.417 178.921C305.561 180.347 303.834 186.844 303.69 188.746" fill="#FC4F5A"/>
<path d="M261.238 264.968C263.828 254.192 291.313 203.166 291.313 203.166L297.213 198.095L299.659 205.226C299.659 205.226 293.759 283.984 275.772 288.738C259.942 293.017 251.165 264.81 251.165 264.81" fill="#FC4F5A"/>
<path d="M269.728 245.16C269.728 245.16 269.297 246.269 268.721 248.012C268.001 249.597 267.138 251.815 266.275 254.034C265.411 256.252 264.404 258.312 263.541 259.897C262.677 261.482 262.102 262.432 262.102 262.432C262.102 262.432 262.389 261.323 262.965 259.58C263.541 257.837 264.404 255.618 265.411 253.558C265.843 252.449 266.275 251.34 266.85 250.389C267.282 249.438 267.858 248.487 268.289 247.695C269.009 246.11 269.728 245.16 269.728 245.16Z" fill="#DFEAEF"/>
<path d="M203.82 255.143L207.13 255.618C213.462 256.411 219.074 251.498 219.793 244.684L220.657 236.761L194.755 233.274L193.891 241.198C193.028 248.17 197.489 254.351 203.82 255.143Z" fill="white"/>
<path d="M185.978 241.515C186.41 237.87 189.432 235.176 192.741 235.651L202.526 236.919L201.087 250.389L191.302 249.121C187.993 248.487 185.546 245.159 185.978 241.515ZM200.08 238.979L192.453 238.028C190.295 237.711 188.424 239.455 188.136 241.832C187.849 244.209 189.432 246.269 191.59 246.586L199.217 247.536L200.08 238.979Z" fill="white"/>
<path d="M190.582 249.438C192.165 248.646 191.589 245.318 189.575 245.635C190.15 245.318 190.726 244.684 190.87 243.892C191.014 242.782 189.863 241.515 188.28 241.832C188.855 241.356 188.999 240.247 188.424 239.455C187.848 238.662 186.841 238.504 185.977 238.662C184.107 238.821 182.38 239.93 180.797 241.039C177.919 242.941 175.329 245.159 172.738 247.536C171.587 248.487 170.292 249.438 169.141 250.547C168.853 250.864 168.277 251.498 167.846 251.657L115.61 250.23L127.985 198.887L92.4415 189.062C92.4415 189.062 69.1295 267.345 79.3465 275.268C99.3488 291.273 167.414 263.383 169.716 262.432C170.148 262.274 170.58 262.115 171.012 261.957C178.494 264.175 183.243 257.52 185.114 255.143C185.402 254.826 185.977 254.351 186.265 254.667C186.409 254.826 186.409 254.984 186.553 255.301C187.272 257.678 189.575 255.618 190.438 254.667C191.158 253.875 191.733 253.083 192.021 251.974C192.021 250.864 191.589 249.597 190.582 249.438Z" fill="#FC4F5A"/>
<path d="M146.549 132.489C130.433 137.401 115.323 148.652 104.099 164.816C92.7304 181.138 82.8012 206.651 76.0378 234.859C76.0378 234.859 107.121 245 125.108 242.148C128.562 232.957 141.225 181.931 141.225 181.931" fill="#F59D00"/>
<path d="M125.109 242.148C128.994 231.69 136.909 193.974 141.226 181.931" stroke="white" stroke-width="0.5" stroke-miterlimit="10" stroke-linejoin="round"/>
</svg>
